<svg width="1280" height="354" viewBox="0 0 1280 354" fill="none" xmlns="http://www.w3.org/2000/svg">
<g clip-path="url(#clip0_48_2139)">
<rect width="1280" height="353" transform="translate(0 0.262695)" fill="white"/>
<path d="M836.506 26.378C838.317 21.9958 843.869 20.6441 847.492 23.7035L873.279 45.4814C875.875 47.6743 879.672 47.6852 882.281 45.5071L908.192 23.877C911.832 20.8383 917.377 22.2217 919.163 26.6142L931.875 57.8812C933.155 61.0297 936.512 62.8038 939.834 62.0877L972.829 54.9765C977.464 53.9775 981.731 57.7791 981.271 62.4984L977.997 96.0918C977.667 99.4745 979.815 102.605 983.09 103.515L1015.61 112.552C1020.18 113.822 1022.19 119.171 1019.59 123.136L1001.08 151.359C999.214 154.201 999.661 157.972 1002.14 160.299L1026.73 183.414C1030.19 186.661 1029.48 192.332 1025.34 194.634L995.832 211.023C992.86 212.673 991.504 216.219 992.615 219.431L1003.65 251.328C1005.2 255.809 1001.94 260.503 997.202 260.615L963.459 261.414C960.061 261.495 957.212 264.004 956.704 267.365L951.653 300.737C950.943 305.425 945.875 308.067 941.626 305.963L911.377 290.989C908.331 289.481 904.642 290.379 902.63 293.119L882.648 320.321C879.841 324.143 874.127 324.126 871.341 320.289L851.516 292.973C849.519 290.222 845.836 289.303 842.781 290.793L812.447 305.594C808.185 307.673 803.133 305.003 802.45 300.311L797.59 266.91C797.1 263.547 794.266 261.021 790.868 260.921L757.13 259.929C752.391 259.79 749.158 255.078 750.734 250.606L761.953 218.772C763.082 215.567 761.746 212.013 758.784 210.346L729.372 193.789C725.24 191.463 724.567 185.788 728.041 182.56L752.768 159.587C755.258 157.273 755.727 153.506 753.879 150.653L735.53 122.324C732.952 118.344 734.994 113.007 739.569 111.763L772.141 102.913C775.421 102.021 777.586 98.9028 777.276 95.5182L774.194 61.9067C773.761 57.1849 778.049 53.4077 782.678 54.4332L815.632 61.7328C818.95 62.4678 822.317 60.713 823.615 57.5719L836.506 26.378Z" fill="#FEF4E8"/>
<path d="M851.472 87.852C853.283 83.4698 858.835 82.1181 862.458 85.1775L873.14 94.1987C875.736 96.3917 879.533 96.4025 882.142 94.2244L892.875 85.2645C896.515 82.2258 902.06 83.6092 903.846 88.0017L909.112 100.954C910.392 104.102 913.748 105.876 917.071 105.16L930.739 102.214C935.374 101.215 939.64 105.017 939.18 109.736L937.824 123.652C937.494 127.035 939.642 130.165 942.917 131.075L956.388 134.819C960.956 136.088 962.968 141.437 960.367 145.402L952.699 157.093C950.835 159.935 951.282 163.706 953.759 166.033L963.947 175.608C967.403 178.855 966.698 184.526 962.552 186.829L950.33 193.617C947.358 195.268 946.002 198.814 947.113 202.026L951.685 215.239C953.235 219.72 949.976 224.413 945.235 224.525L931.258 224.856C927.86 224.937 925.011 227.446 924.502 230.807L922.41 244.631C921.7 249.319 916.633 251.96 912.383 249.857L899.853 243.654C896.807 242.146 893.118 243.044 891.106 245.784L882.829 257.052C880.022 260.873 874.307 260.857 871.522 257.019L863.31 245.704C861.313 242.953 857.63 242.034 854.575 243.525L842.009 249.656C837.748 251.735 832.696 249.065 832.013 244.373L830 230.537C829.51 227.174 826.676 224.648 823.278 224.548L809.303 224.137C804.563 223.998 801.33 219.286 802.906 214.813L807.554 201.627C808.683 198.421 807.347 194.868 804.385 193.2L792.201 186.342C788.069 184.016 787.397 178.341 790.871 175.114L801.114 165.597C803.604 163.284 804.072 159.516 802.224 156.663L794.623 144.929C792.046 140.949 794.087 135.611 798.663 134.368L812.155 130.702C815.435 129.81 817.601 126.692 817.29 123.307L816.014 109.384C815.581 104.662 819.869 100.885 824.498 101.911L838.149 104.935C841.467 105.67 844.834 103.915 846.132 100.774L851.472 87.852Z" fill="#FDE9D2"/>
<path d="M861.011 233.956C859.303 237.997 861.211 242.625 865.277 244.304L894.204 256.266C899.549 258.469 905.455 258.926 911.1 257.551L973.254 242.42C976.687 241.584 978.792 238.159 977.963 234.755L974.967 222.448C974.139 219.044 970.695 216.97 967.261 217.805L960.123 219.543L949.727 214.741C944.472 212.313 938.542 211.761 932.897 213.135L902.189 220.611C898.755 221.447 896.651 224.872 897.479 228.276C898.308 231.679 901.751 233.754 905.185 232.918L920.704 229.14C922.411 228.724 924.145 229.769 924.557 231.461C924.969 233.153 923.909 234.878 922.202 235.293L898.807 240.989L871.457 229.681C867.391 228.003 862.719 229.914 861.011 233.956Z" fill="#D56834"/>
<path d="M865.108 124.426C866.815 120.385 864.908 115.757 860.842 114.078L831.915 102.115C826.57 99.913 820.664 99.4564 815.019 100.831L752.865 115.962C749.432 116.798 747.327 120.223 748.156 123.627L751.152 135.934C751.98 139.338 755.424 141.412 758.857 140.576L765.996 138.839L776.392 143.641C781.647 146.069 787.577 146.621 793.222 145.247L823.93 137.771C827.364 136.935 829.468 133.51 828.64 130.106C827.811 126.703 824.368 124.628 820.934 125.464L805.415 129.242C803.708 129.658 801.974 128.613 801.562 126.921C801.15 125.229 802.21 123.504 803.917 123.089L827.312 117.393L854.661 128.701C858.728 130.379 863.4 128.468 865.108 124.426Z" fill="#BD6E28"/>
<path d="M974.149 210.632C963.685 213.18 957.268 223.727 959.815 234.191C962.363 244.655 972.91 251.073 983.374 248.525L974.149 210.632ZM983.374 248.525L1381.25 151.662L1372.03 113.769L974.149 210.632L983.374 248.525Z" fill="#F6931D"/>
<path d="M748.279 149.499C758.743 146.951 765.16 136.403 762.613 125.94C760.065 115.476 749.518 109.058 739.054 111.605L748.279 149.499ZM739.054 111.605L-25.6125 297.763L-16.3875 335.656L748.279 149.499L739.054 111.605Z" fill="#FFCC19"/>
<path d="M743.087 -2.1014C748.453 -3.40754 751.744 -8.81653 750.438 -14.1827C749.132 -19.5489 743.723 -22.8402 738.357 -21.534L743.087 -2.1014ZM738.357 -21.534L-64.0869 173.784L-59.3569 193.217L743.087 -2.1014L738.357 -21.534Z" fill="#E6E6E6"/>
<path d="M477.086 -25.9076C480.305 -26.6914 482.28 -29.9369 481.496 -33.1566C480.712 -36.3762 477.467 -38.3509 474.247 -37.567L477.086 -25.9076ZM474.247 -37.567L-290.419 148.59L-287.581 160.25L477.086 -25.9076L474.247 -37.567Z" fill="#E6E6E6"/>
<path d="M303.811 152.15L-182 270.42" stroke="#F7F7F7" stroke-width="12" stroke-linecap="round"/>
<path d="M622.811 -26.7373L137 91.5328" stroke="#F7F7F7" stroke-width="12" stroke-linecap="round"/>
<path d="M262.811 -26.7373L-223 91.5328" stroke="#F7F7F7" stroke-width="6" stroke-linecap="round"/>
<path d="M1189.83 -46.8153L1201.89 -45.5532L1215.54 3.61898L1186.44 4.82481L1144.63 28.0219L1125.72 29.6866L1113.56 -20.2682L1148.33 -25.7936L1189.83 -46.8153Z" fill="#1B8044"/>
<path d="M1203.04 -50.5681C1196.42 -51.611 1190.18 -51.1005 1184.17 -49.6377C1165.09 -44.9954 1148.36 -30.7511 1129.28 -26.1073C1124.5 -24.9427 1119.57 -24.3824 1114.42 -24.7268C1113.84 -24.7654 1113.28 -24.7143 1112.76 -24.5861C1110.09 -23.9372 1108.26 -21.3191 1108.95 -18.4719L1120.85 30.3812C1121.32 32.3261 1122.89 33.8967 1124.87 34.2073C1131.49 35.2517 1137.73 34.7413 1143.74 33.2784C1162.82 28.6346 1179.55 14.3899 1198.63 9.74612C1203.41 8.5815 1208.34 8.02125 1213.49 8.36568C1214.07 8.40424 1214.63 8.3531 1215.15 8.22491C1217.82 7.57606 1219.65 4.95794 1218.96 2.11076L1207.06 -46.7409C1206.59 -48.6869 1205.02 -50.2559 1203.04 -50.5681ZM1117.19 -16.9848C1120.5 -16.9673 1123.84 -17.3695 1127.24 -17.9744C1127.43 -13.2271 1124.26 -8.84215 1119.46 -7.67338L1117.19 -16.9848ZM1127.87 26.9008L1126.08 19.5434C1131.41 18.2476 1136.74 21.3982 1138.25 26.5961C1134.69 27.1668 1131.26 27.2679 1127.87 26.9008ZM1167.55 6.6029C1160.71 8.26897 1153.55 2.99928 1151.57 -5.16345C1149.58 -13.3277 1153.51 -21.2965 1160.36 -22.9622C1167.2 -24.6278 1174.36 -19.3601 1176.34 -11.1958C1178.33 -3.03 1174.39 4.93759 1167.55 6.6029ZM1210.72 0.625577C1207.84 0.610128 1204.93 0.917131 1201.99 1.37393C1201.92 -2.8633 1204.53 -6.7277 1208.56 -8.26242L1210.72 0.625577ZM1201.87 -35.7317C1196.94 -35.1692 1192.26 -38.2367 1190.92 -43.1053C1194.02 -43.5079 1197.05 -43.5821 1200.03 -43.2601L1201.87 -35.7317Z" fill="#48C479"/>
<path d="M1056.83 26.1846L1068.89 27.4468L1082.54 76.619L1053.44 77.8248L1011.63 101.022L992.718 102.687L980.557 52.7318L1015.33 47.2064L1056.83 26.1846Z" fill="#1B8044"/>
<path d="M1070.04 22.4319C1063.42 21.389 1057.18 21.8994 1051.17 23.3623C1032.09 28.0045 1015.36 42.2489 996.283 46.8927C991.499 48.0573 986.571 48.6176 981.42 48.2731C980.841 48.2346 980.283 48.2857 979.756 48.4139C977.091 49.0628 975.261 51.6809 975.954 54.528L987.848 103.381C988.321 105.326 989.89 106.897 991.87 107.207C998.487 108.252 1004.73 107.741 1010.74 106.278C1029.82 101.635 1046.55 87.3899 1065.63 82.7461C1070.41 81.5815 1075.34 81.0212 1080.49 81.3657C1081.07 81.4042 1081.63 81.3531 1082.15 81.2249C1084.82 80.576 1086.65 77.9579 1085.96 75.1107L1074.06 26.2591C1073.59 24.3131 1072.02 22.7441 1070.04 22.4319ZM984.191 56.0152C987.496 56.0327 990.843 55.6305 994.239 55.0255C994.43 59.7728 991.258 64.1578 986.458 65.3266L984.191 56.0152ZM994.875 99.9008L993.083 92.5434C998.406 91.2476 1003.74 94.3982 1005.25 99.596C1001.69 100.167 998.265 100.268 994.875 99.9008ZM1034.55 79.6029C1027.71 81.269 1020.55 75.9993 1018.57 67.8365C1016.58 59.6723 1020.51 51.7035 1027.36 50.0378C1034.2 48.3721 1041.36 53.6399 1043.34 61.8042C1045.33 69.97 1041.39 77.9376 1034.55 79.6029ZM1077.72 73.6256C1074.84 73.6101 1071.93 73.9171 1068.99 74.3739C1068.92 70.1367 1071.53 66.2723 1075.56 64.7376L1077.72 73.6256ZM1068.87 37.2682C1063.94 37.8308 1059.26 34.7632 1057.92 29.8946C1061.02 29.4921 1064.05 29.4179 1067.03 29.7399L1068.87 37.2682Z" fill="#60D08D"/>
<path d="M953.827 86.1846L965.893 87.4468L979.544 136.619L950.44 137.825L908.631 161.022L889.718 162.687L877.557 112.732L912.328 107.206L953.827 86.1846Z" fill="#1B8044"/>
<path d="M967.039 82.4319C960.422 81.389 954.178 81.8994 948.169 83.3623C929.094 88.0045 912.358 102.249 893.283 106.893C888.499 108.057 883.571 108.618 878.42 108.273C877.841 108.235 877.283 108.286 876.756 108.414C874.091 109.063 872.261 111.681 872.954 114.528L884.848 163.381C885.321 165.326 886.89 166.897 888.87 167.207C895.487 168.252 901.731 167.741 907.74 166.278C926.815 161.635 943.553 147.39 962.628 142.746C967.412 141.581 972.339 141.021 977.491 141.366C978.069 141.404 978.628 141.353 979.154 141.225C981.82 140.576 983.649 137.958 982.956 135.111L971.063 86.2591C970.588 84.3131 969.02 82.7441 967.039 82.4319ZM881.191 116.015C884.496 116.033 887.843 115.63 891.239 115.026C891.43 119.773 888.258 124.158 883.458 125.327L881.191 116.015ZM891.875 159.901L890.083 152.543C895.406 151.248 900.735 154.398 902.252 159.596C898.695 160.167 895.265 160.268 891.875 159.901ZM931.554 139.603C924.71 141.269 917.553 135.999 915.565 127.837C913.578 119.672 917.514 111.704 924.356 110.038C931.198 108.372 938.357 113.64 940.344 121.804C942.332 129.97 938.394 137.938 931.554 139.603ZM974.719 133.626C971.841 133.61 968.932 133.917 965.99 134.374C965.921 130.137 968.529 126.272 972.555 124.738L974.719 133.626ZM965.868 97.2682C960.937 97.8308 956.258 94.7632 954.917 89.8946C958.025 89.4921 961.05 89.4179 964.035 89.7399L965.868 97.2682Z" fill="#48C479"/>
<path d="M904.022 132.765L916.088 134.027L929.739 183.199L900.635 184.405L858.826 207.602L839.913 209.267L827.752 159.312L862.524 153.786L904.022 132.765Z" fill="#1B8044"/>
<path d="M917.235 129.012C910.617 127.969 904.373 128.479 898.365 129.942C879.289 134.585 862.553 148.829 843.478 153.473C838.694 154.637 833.767 155.198 828.615 154.853C828.037 154.815 827.478 154.866 826.952 154.994C824.286 155.643 822.457 158.261 823.15 161.108L835.043 209.961C835.516 211.906 837.085 213.477 839.065 213.787C845.683 214.832 851.927 214.321 857.935 212.858C877.01 208.215 893.748 193.97 912.823 189.326C917.607 188.162 922.535 187.601 927.686 187.946C928.265 187.984 928.823 187.933 929.35 187.805C932.015 187.156 933.845 184.538 933.152 181.691L921.259 132.839C920.783 130.893 919.215 129.324 917.235 129.012ZM831.386 162.595C834.691 162.613 838.038 162.211 841.434 161.606C841.625 166.353 838.454 170.738 833.653 171.907L831.386 162.595ZM842.07 206.481L840.279 199.123C845.601 197.828 850.931 200.978 852.447 206.176C848.89 206.747 845.46 206.848 842.07 206.481ZM881.749 186.183C874.905 187.849 867.748 182.579 865.761 174.417C863.773 166.252 867.709 158.284 874.551 156.618C881.393 154.952 888.552 160.22 890.539 168.384C892.527 176.55 888.589 184.518 881.749 186.183ZM924.914 180.206C922.036 180.19 919.127 180.497 916.185 180.954C916.117 176.717 918.724 172.852 922.75 171.318L924.914 180.206ZM916.063 143.848C911.133 144.411 906.454 141.343 905.112 136.475C908.22 136.072 911.245 135.998 914.23 136.32L916.063 143.848Z" fill="#60D08D"/>
</g>
<defs>
<clipPath id="clip0_48_2139">
<rect width="1280" height="353" fill="white" transform="translate(0 0.262695)"/>
</clipPath>
</defs>
</svg>
