<svg width="595" height="394" viewBox="0 0 595 394" fill="none" xmlns="http://www.w3.org/2000/svg">
<path d="M346 267.263C353.6 259.263 491.5 247.929 559.5 243.263L549 218.763H-37V393.263C68 386.429 287.1 370.063 323.5 359.263C369 345.763 115 349.763 137 321.763C159 293.763 433.5 296.763 448.5 286.263C463.5 275.763 336.5 277.263 346 267.263Z" fill="#3B3B3B"/>
<path d="M595 243.163H518.483V247.414H595V243.163Z" fill="#999999"/>
<path d="M588.624 245.289H518.483V183.65H550.365C558.867 183.65 560.993 187.901 560.993 187.901L569.494 200.654C569.494 200.654 595 211.281 595 221.908C595 230.41 582.247 234.661 582.247 234.661L588.624 245.289Z" fill="#E6E6E6"/>
<path d="M565.244 245.289L560.993 238.912H518.483V245.289H565.244Z" fill="#333333"/>
<path d="M595 221.906C595 230.408 582.247 234.659 582.247 234.659V207.296C588.624 211.281 595 216.593 595 221.906Z" fill="#FFCC19"/>
<path d="M582.247 234.661L588.624 245.289H518.483V234.661H582.247Z" fill="#F6931D"/>
<path d="M552.491 234.661L543.989 221.908H518.483V234.661H552.491Z" fill="#FFCC19"/>
<rect x="-557" y="183.65" width="1075.48" height="38.2583" fill="#E6E6E6"/>
<rect x="-557" y="221.908" width="1075.48" height="12.7528" fill="#FFCC19"/>
<rect x="-557" y="234.661" width="1075.48" height="10.6273" fill="#F6931D"/>
<rect x="-557" y="245.289" width="1075.48" height="2.12546" fill="#999999"/>
<path d="M-25.8581 192.152H-4.60346L3.89839 204.905H3.90051H-19.1459C-20.1597 204.905 -21.5009 203.953 -22.147 202.779L-26.8167 194.277C-27.4607 193.104 -27.0335 192.152 -25.8581 192.152Z" fill="#CCCCCC"/>
<path d="M11.5353 192.152H32.7899L41.2918 204.905H41.2939H18.2475C17.2337 204.905 15.8925 203.953 15.2464 202.779L10.5767 194.277C9.9327 193.104 10.3599 192.152 11.5353 192.152Z" fill="#CCCCCC"/>
<path d="M48.9286 192.152H70.1832L78.6851 204.905H78.6872H55.6408C54.627 204.905 53.2858 203.953 52.6397 202.779L47.97 194.277C47.326 193.104 47.7532 192.152 48.9286 192.152Z" fill="#CCCCCC"/>
<path d="M86.322 192.152H107.577L116.078 204.905H116.081H93.0342C92.0203 204.905 90.6792 203.953 90.033 202.779L85.3634 194.277C84.7194 193.104 85.1466 192.152 86.322 192.152Z" fill="#CCCCCC"/>
<path d="M123.715 192.152H144.97L153.472 204.905H153.474H130.428C129.414 204.905 128.072 203.953 127.426 202.779L122.757 194.277C122.113 193.104 122.54 192.152 123.715 192.152Z" fill="#CCCCCC"/>
<path d="M161.109 192.152H182.363L190.865 204.905H190.867H167.821C166.807 204.905 165.466 203.953 164.82 202.779L160.15 194.277C159.506 193.104 159.933 192.152 161.109 192.152Z" fill="#CCCCCC"/>
<path d="M198.502 192.152H219.757L228.258 204.905H228.261H205.214C204.2 204.905 202.859 203.953 202.213 202.779L197.543 194.277C196.899 193.104 197.327 192.152 198.502 192.152Z" fill="#CCCCCC"/>
<path d="M235.895 192.152H257.15L265.652 204.905H265.654H242.608C241.594 204.905 240.253 203.953 239.606 202.779L234.937 194.277C234.293 193.104 234.72 192.152 235.895 192.152Z" fill="#CCCCCC"/>
<path d="M273.289 192.152H294.543L303.045 204.905H303.047H280.001C278.987 204.905 277.646 203.953 277 202.779L272.33 194.277C271.686 193.104 272.113 192.152 273.289 192.152Z" fill="#CCCCCC"/>
<path d="M310.682 192.152H331.937L340.439 204.905H340.441H317.394C316.38 204.905 315.039 203.953 314.393 202.779L309.724 194.277C309.079 193.104 309.507 192.152 310.682 192.152Z" fill="#CCCCCC"/>
<path d="M348.076 192.152H369.33L377.832 204.905H377.834H354.788C353.774 204.905 352.433 203.953 351.787 202.779L347.117 194.277C346.473 193.104 346.9 192.152 348.076 192.152Z" fill="#CCCCCC"/>
<path d="M385.469 192.152H406.723L415.225 204.905H415.227H392.181C391.167 204.905 389.826 203.953 389.18 202.779L384.51 194.277C383.866 193.104 384.293 192.152 385.469 192.152Z" fill="#CCCCCC"/>
<path d="M422.862 192.152H444.117L452.619 204.905H452.621H429.575C428.561 204.905 427.22 203.953 426.573 202.779L421.904 194.277C421.26 193.104 421.687 192.152 422.862 192.152Z" fill="#CCCCCC"/>
<path d="M460.255 192.152H481.51L490.012 204.905H490.014H466.968C465.954 204.905 464.613 203.953 463.967 202.779L459.297 194.277C458.653 193.104 459.08 192.152 460.255 192.152Z" fill="#CCCCCC"/>
<path d="M497.649 192.152H518.903L527.405 204.905H527.407H504.361C503.347 204.905 502.006 203.953 501.36 202.779L496.69 194.277C496.046 193.104 496.473 192.152 497.649 192.152Z" fill="#CCCCCC"/>
<rect y="187.901" width="361.322" height="2.12546" fill="white"/>
<rect y="221.908" width="361.322" height="2.12546" fill="white"/>
<rect y="196.403" width="490.852" height="2.12546" fill="white"/>
<rect y="230.41" width="490.852" height="2.12546" fill="white"/>
<rect y="204.905" width="303.374" height="2.12546" fill="white"/>
<rect y="238.912" width="303.374" height="2.12546" fill="white"/>
<rect y="213.407" width="415.861" height="2.12546" fill="white"/>
<rect y="192.152" width="194.953" height="2.12546" fill="white"/>
<rect y="226.159" width="194.953" height="2.12546" fill="white"/>
<rect y="200.654" width="264.841" height="2.12546" fill="white"/>
<rect y="234.661" width="264.841" height="2.12546" fill="white"/>
<rect y="209.156" width="163.687" height="2.12546" fill="white"/>
<rect y="243.163" width="163.687" height="2.12546" fill="white"/>
<rect y="217.658" width="224.379" height="2.12546" fill="white"/>
<rect y="126.263" width="361.322" height="2.12546" fill="url(#paint0_radial_48_2125)"/>
<rect y="160.27" width="361.322" height="2.12546" fill="url(#paint1_radial_48_2125)"/>
<rect y="134.765" width="490.852" height="2.12546" fill="url(#paint2_radial_48_2125)"/>
<rect y="168.772" width="490.852" height="2.12546" fill="url(#paint3_radial_48_2125)"/>
<rect y="143.266" width="303.374" height="2.12546" fill="url(#paint4_radial_48_2125)"/>
<rect y="177.274" width="303.374" height="2.12546" fill="url(#paint5_radial_48_2125)"/>
<rect y="151.768" width="415.861" height="2.12546" fill="url(#paint6_radial_48_2125)"/>
<rect y="251.665" width="233.507" height="2.12546" fill="url(#paint7_radial_48_2125)"/>
<rect y="285.672" width="233.507" height="2.12546" fill="url(#paint8_radial_48_2125)"/>
<rect y="260.167" width="317.218" height="2.12546" fill="url(#paint9_radial_48_2125)"/>
<rect y="294.174" width="317.218" height="2.12546" fill="url(#paint10_radial_48_2125)"/>
<rect y="268.669" width="196.058" height="2.12546" fill="url(#paint11_radial_48_2125)"/>
<rect y="302.676" width="196.058" height="2.12546" fill="url(#paint12_radial_48_2125)"/>
<rect y="277.17" width="268.754" height="2.12546" fill="url(#paint13_radial_48_2125)"/>
<g clip-path="url(#clip0_48_2125)">
<path d="M539 198.25C539 203.213 543.029 207.236 548 207.236C552.971 207.236 557 203.213 557 198.25C557 193.286 552.971 189.263 548 189.263C543.029 189.263 539 193.286 539 198.25Z" fill="#333333"/>
<path fill-rule="evenodd" clip-rule="evenodd" d="M548 205.976C543.724 205.976 540.26 202.515 540.26 198.25C540.26 193.984 543.724 190.523 548 190.523C552.276 190.523 555.74 193.984 555.74 198.25C555.74 202.515 552.276 205.976 548 205.976ZM548 207.236C543.029 207.236 539 203.213 539 198.25C539 193.286 543.029 189.263 548 189.263C552.971 189.263 557 193.286 557 198.25C557 203.213 552.971 207.236 548 207.236Z" fill="#333333"/>
<path d="M551.12 195.947H552.228C552.29 195.947 552.34 195.997 552.34 196.059C552.34 196.721 551.803 197.258 551.141 197.258H550.951C551.068 196.93 551.131 196.577 551.131 196.209C551.131 196.121 551.127 196.034 551.12 195.947Z" fill="#F6931D"/>
<path d="M545.292 194.637H546.536L544.897 195.787C544.953 195.372 545.09 194.983 545.292 194.637Z" fill="#FFCC19"/>
<path d="M544.922 196.789C545.022 196.793 545.124 196.766 545.212 196.705L548.158 194.637L550.708 194.637C550.977 195.099 551.131 195.636 551.131 196.209C551.131 197.939 549.729 199.34 548 199.34C546.469 199.34 545.194 198.241 544.922 196.789Z" fill="#FFCC19"/>
<ellipse cx="0.72" cy="0.720024" rx="0.72" ry="0.720024" transform="matrix(-1 0 0 1 550.16 195.237)" fill="#333333"/>
<ellipse cx="0.18" cy="0.18" rx="0.18" ry="0.18" transform="matrix(-1 0 0 1 549.62 195.425)" fill="white"/>
<path fill-rule="evenodd" clip-rule="evenodd" d="M545.728 192.422C545.299 192.851 545.007 193.392 544.881 193.976C544.857 193.996 544.833 194.017 544.811 194.039C544.738 194.112 544.68 194.196 544.639 194.287C544.573 194.433 544.668 194.57 544.811 194.618C544.811 194.621 544.811 194.624 544.811 194.627C544.811 194.63 544.811 194.633 544.811 194.636H546.536L544.676 195.942C544.466 196.089 544.415 196.38 544.563 196.591C544.711 196.801 545.001 196.852 545.212 196.705L548.158 194.636L551.073 194.636V194.636H551.426C551.625 194.636 551.793 194.468 551.711 194.287C551.669 194.196 551.611 194.112 551.539 194.039C551.384 193.884 551.175 193.796 550.957 193.792C550.813 193.279 550.539 192.806 550.156 192.422C549.569 191.835 548.772 191.505 547.942 191.505C547.111 191.505 546.315 191.835 545.728 192.422Z" fill="white"/>
<path d="M557 198.263C557 203.05 553.263 206.964 548.547 207.246C548.547 207.246 548.547 207.246 548.547 207.246C549.771 207.173 550.929 206.855 551.973 206.341C552.654 205.584 553.068 204.582 553.068 203.484C553.068 202.015 552.327 200.719 551.199 199.95L556.956 197.372C556.985 197.665 557 197.962 557 198.263Z" fill="#F6931D"/>
<path d="M539.049 199.209C539.522 203.735 543.349 207.263 548 207.263C549.426 207.263 550.775 206.931 551.973 206.341C552.654 205.584 553.068 204.582 553.068 203.484C553.068 201.123 551.154 199.209 548.794 199.209H539.049Z" fill="#FFCC19"/>
<path fill-rule="evenodd" clip-rule="evenodd" d="M539.639 201.598C539.969 202.427 540.42 203.195 540.968 203.88H541.539H543.846H544.615H546.539V202.359C546.539 201.939 546.194 201.598 545.769 201.598H544.769V201.196C544.769 200.784 544.425 200.45 544 200.45H541.462C541.037 200.45 540.692 200.784 540.692 201.196V201.598H539.639ZM541.462 201.046H544C544.085 201.046 544.154 201.113 544.154 201.196V201.598H543.846H541.539H541.308V201.196C541.308 201.113 541.377 201.046 541.462 201.046Z" fill="#D56834"/>
<path fill-rule="evenodd" clip-rule="evenodd" d="M541.816 204.802C543.093 206.01 544.724 206.848 546.538 207.144C546.538 207.131 546.539 207.118 546.539 207.105V204.802H544.615H543.846H541.816Z" fill="#BD6E28"/>
<path fill-rule="evenodd" clip-rule="evenodd" d="M548 205.976C543.724 205.976 540.26 202.515 540.26 198.25C540.26 193.984 543.724 190.523 548 190.523C552.276 190.523 555.74 193.984 555.74 198.25C555.74 202.515 552.276 205.976 548 205.976ZM548 207.236C543.029 207.236 539 203.213 539 198.25C539 193.286 543.029 189.263 548 189.263C552.971 189.263 557 193.286 557 198.25C557 203.213 552.971 207.236 548 207.236Z" fill="#333333"/>
</g>
<path d="M228 26.2627H52C62.7855 26.2627 62.2953 23.302 65.4819 20.588C68.6685 17.874 77.2479 19.1077 83.376 12.9395C89.5042 6.7714 95.1421 9.7321 102.251 11.2125C109.359 12.6928 111.32 1.59017 120.145 0.356542C128.969 -0.877085 130.685 10.4723 143.187 9.7321C155.688 8.99193 150.54 20.588 164.513 23.302C175.69 25.4732 211.495 26.1805 228 26.2627Z" fill="#4D4D4D"/>
<path d="M595 65.2627H419C429.786 65.2627 429.295 62.302 432.482 59.588C435.669 56.874 444.248 58.1077 450.376 51.9395C456.504 45.7714 462.142 48.7321 469.251 50.2125C476.359 51.6928 478.32 40.5902 487.145 39.3565C495.969 38.1229 497.685 49.4723 510.187 48.7321C522.688 47.9919 517.54 59.588 531.513 62.302C542.69 64.4732 578.495 65.1805 595 65.2627Z" fill="#666666"/>
<path d="M208 93.2627H313C306.565 93.2627 306.858 91.4407 304.957 89.7706C303.056 88.1004 297.937 88.8596 294.281 85.0638C290.625 81.2681 287.262 83.09 283.021 84.001C278.78 84.912 277.61 78.0796 272.345 77.3204C267.081 76.5613 266.057 83.5455 258.599 83.09C251.141 82.6345 254.212 89.7706 245.876 91.4407C239.208 92.7768 217.847 93.2121 208 93.2627Z" fill="#999999"/>
<defs>
<radialGradient id="paint0_radial_48_2125" cx="0" cy="0" r="1" gradientUnits="userSpaceOnUse" gradientTransform="translate(180.661 127.325) rotate(90) scale(1.06273 180.661)">
<stop stop-color="#D9D9D9"/>
<stop offset="1" stop-color="#808080" stop-opacity="0"/>
</radialGradient>
<radialGradient id="paint1_radial_48_2125" cx="0" cy="0" r="1" gradientUnits="userSpaceOnUse" gradientTransform="translate(180.661 161.333) rotate(90) scale(1.06273 180.661)">
<stop stop-color="#D9D9D9"/>
<stop offset="1" stop-color="#808080" stop-opacity="0"/>
</radialGradient>
<radialGradient id="paint2_radial_48_2125" cx="0" cy="0" r="1" gradientUnits="userSpaceOnUse" gradientTransform="translate(245.426 135.827) rotate(90) scale(1.06273 245.426)">
<stop stop-color="#D9D9D9"/>
<stop offset="1" stop-color="#808080" stop-opacity="0"/>
</radialGradient>
<radialGradient id="paint3_radial_48_2125" cx="0" cy="0" r="1" gradientUnits="userSpaceOnUse" gradientTransform="translate(245.426 169.835) rotate(90) scale(1.06273 245.426)">
<stop stop-color="#D9D9D9"/>
<stop offset="1" stop-color="#808080" stop-opacity="0"/>
</radialGradient>
<radialGradient id="paint4_radial_48_2125" cx="0" cy="0" r="1" gradientUnits="userSpaceOnUse" gradientTransform="translate(151.687 144.329) rotate(90) scale(1.06273 151.687)">
<stop stop-color="#D9D9D9"/>
<stop offset="1" stop-color="#808080" stop-opacity="0"/>
</radialGradient>
<radialGradient id="paint5_radial_48_2125" cx="0" cy="0" r="1" gradientUnits="userSpaceOnUse" gradientTransform="translate(151.687 178.336) rotate(90) scale(1.06273 151.687)">
<stop stop-color="#D9D9D9"/>
<stop offset="1" stop-color="#808080" stop-opacity="0"/>
</radialGradient>
<radialGradient id="paint6_radial_48_2125" cx="0" cy="0" r="1" gradientUnits="userSpaceOnUse" gradientTransform="translate(207.931 152.831) rotate(90) scale(1.06273 207.931)">
<stop stop-color="#D9D9D9"/>
<stop offset="1" stop-color="#808080" stop-opacity="0"/>
</radialGradient>
<radialGradient id="paint7_radial_48_2125" cx="0" cy="0" r="1" gradientUnits="userSpaceOnUse" gradientTransform="translate(116.754 252.728) rotate(90) scale(1.06273 116.754)">
<stop stop-color="#D9D9D9"/>
<stop offset="1" stop-color="#808080" stop-opacity="0"/>
</radialGradient>
<radialGradient id="paint8_radial_48_2125" cx="0" cy="0" r="1" gradientUnits="userSpaceOnUse" gradientTransform="translate(116.754 286.735) rotate(90) scale(1.06273 116.754)">
<stop stop-color="#D9D9D9"/>
<stop offset="1" stop-color="#808080" stop-opacity="0"/>
</radialGradient>
<radialGradient id="paint9_radial_48_2125" cx="0" cy="0" r="1" gradientUnits="userSpaceOnUse" gradientTransform="translate(158.609 261.229) rotate(90) scale(1.06273 158.609)">
<stop stop-color="#D9D9D9"/>
<stop offset="1" stop-color="#808080" stop-opacity="0"/>
</radialGradient>
<radialGradient id="paint10_radial_48_2125" cx="0" cy="0" r="1" gradientUnits="userSpaceOnUse" gradientTransform="translate(158.609 295.237) rotate(90) scale(1.06273 158.609)">
<stop stop-color="#D9D9D9"/>
<stop offset="1" stop-color="#808080" stop-opacity="0"/>
</radialGradient>
<radialGradient id="paint11_radial_48_2125" cx="0" cy="0" r="1" gradientUnits="userSpaceOnUse" gradientTransform="translate(98.029 269.731) rotate(90) scale(1.06273 98.029)">
<stop stop-color="#D9D9D9"/>
<stop offset="1" stop-color="#808080" stop-opacity="0"/>
</radialGradient>
<radialGradient id="paint12_radial_48_2125" cx="0" cy="0" r="1" gradientUnits="userSpaceOnUse" gradientTransform="translate(98.029 303.739) rotate(90) scale(1.06273 98.029)">
<stop stop-color="#D9D9D9"/>
<stop offset="1" stop-color="#808080" stop-opacity="0"/>
</radialGradient>
<radialGradient id="paint13_radial_48_2125" cx="0" cy="0" r="1" gradientUnits="userSpaceOnUse" gradientTransform="translate(134.377 278.233) rotate(90) scale(1.06273 134.377)">
<stop stop-color="#D9D9D9"/>
<stop offset="1" stop-color="#808080" stop-opacity="0"/>
</radialGradient>
<clipPath id="clip0_48_2125">
<rect width="18" height="18" fill="white" transform="matrix(-1 0 0 1 557 189.263)"/>
</clipPath>
</defs>
</svg>
