<svg width="48" height="49" viewBox="0 0 48 49" fill="none" xmlns="http://www.w3.org/2000/svg">
<g id=".base-logo" clip-path="url(#clip0_68_290)">
<path id="BG" d="M0 24.2277C0 37.4632 10.7452 48.1927 24 48.1927C37.2548 48.1927 48 37.4632 48 24.2277C48 10.9922 37.2548 0.262695 24 0.262695C10.7452 0.262695 0 10.9922 0 24.2277Z" fill="#E6E6E6"/>
<path id="stroke bg" fill-rule="evenodd" clip-rule="evenodd" d="M24 44.8327C12.5962 44.8327 3.36 35.6029 3.36 24.2277C3.36 12.8525 12.5962 3.6227 24 3.6227C35.4038 3.6227 44.64 12.8525 44.64 24.2277C44.64 35.6029 35.4038 44.8327 24 44.8327ZM24 48.1927C10.7452 48.1927 0 37.4632 0 24.2277C0 10.9922 10.7452 0.262695 24 0.262695C37.2548 0.262695 48 10.9922 48 24.2277C48 37.4632 37.2548 48.1927 24 48.1927Z" fill="#E6E6E6"/>
<path id="beak" d="M32.3206 18.0879H35.2739C35.4392 18.0879 35.5731 18.2218 35.5731 18.387C35.5731 20.1521 34.1422 21.583 32.3771 21.583H31.8698C32.1804 20.7089 32.3495 19.7677 32.3495 18.787C32.3495 18.5515 32.3397 18.3184 32.3206 18.0879Z" fill="#F6931D"/>
<g id="head">
<path d="M16.7789 14.5929H20.0962L15.7261 17.66C15.8753 16.5543 16.2409 15.5172 16.7789 14.5929Z" fill="#FFCC19"/>
<path d="M15.7933 20.3319C16.0589 20.3445 16.3305 20.2723 16.565 20.1077L24.4226 14.5929L31.2214 14.5929C31.9388 15.8254 32.3497 17.2582 32.3497 18.787C32.3497 23.3984 28.6115 27.1366 24.0002 27.1366C19.9167 27.1366 16.5179 24.2052 15.7933 20.3319Z" fill="#FFCC19"/>
</g>
<ellipse id="eye" cx="1.92" cy="1.92006" rx="1.92" ry="1.92006" transform="matrix(-1 0 0 1 29.76 16.1943)" fill="#333333"/>
<ellipse id="refl" cx="0.48" cy="0.48" rx="0.48" ry="0.48" transform="matrix(-1 0 0 1 28.32 16.6963)" fill="white"/>
<path id="helmet" fill-rule="evenodd" clip-rule="evenodd" d="M17.9409 8.6888C16.7969 9.83273 16.0192 11.2744 15.6832 12.8317C15.6176 12.884 15.5546 12.9402 15.4947 13.0001C15.3017 13.1932 15.1473 13.4177 15.0365 13.6616C14.8605 14.0491 15.1143 14.4146 15.4955 14.5437C15.4955 14.5515 15.4954 14.5593 15.4954 14.5671C15.4954 14.5756 15.4954 14.5842 15.4954 14.5928H20.096L15.1371 18.0732C14.5753 18.4675 14.4395 19.2425 14.8338 19.8043C15.2281 20.3661 16.0031 20.5019 16.5649 20.1076L24.4225 14.5928L32.1944 14.5928V14.5928H33.1371C33.6672 14.5928 34.1147 14.1443 33.8955 13.6616C33.7848 13.4177 33.6304 13.1932 33.4373 13.0001C33.0244 12.5872 32.4677 12.3511 31.885 12.3407C31.5016 10.9722 30.7716 9.71151 29.7489 8.6888C28.183 7.12296 26.0593 6.24329 23.8449 6.24329C21.6304 6.24329 19.5067 7.12297 17.9409 8.6888Z" fill="white"/>
<path id="wing" d="M48 24.2627C48 37.0279 38.0341 47.4654 25.4583 48.2192C25.4583 48.2192 25.4583 48.2192 25.4583 48.2192C28.7224 48.0235 31.8105 47.1755 34.5943 45.8038C36.4098 43.7849 37.5146 41.114 37.5146 38.1851C37.5146 34.2684 35.5391 30.8132 32.5301 28.7614L47.8839 21.887C47.9607 22.6685 48 23.461 48 24.2627Z" fill="#F6931D"/>
<path id="body" d="M0.131165 26.787C1.39262 38.8553 11.5977 48.2627 24 48.2627C27.8028 48.2627 31.399 47.3783 34.5942 45.8039C36.4098 43.7849 37.5145 41.114 37.5145 38.1851C37.5145 31.8901 32.4115 26.787 26.1165 26.787H0.131165Z" fill="#FFCC19"/>
<path id="brief top" fill-rule="evenodd" clip-rule="evenodd" d="M1.70269 33.1575C2.58479 35.3668 3.78575 37.4143 5.24868 39.2432H6.76951H12.9234H14.9746H20.1028V35.186C20.1028 34.0673 19.1828 33.1575 18.0516 33.1575H15.3849V32.0835C15.3849 30.9851 14.4665 30.0947 13.3336 30.0947H6.56438C5.43149 30.0947 4.5131 30.9851 4.5131 32.0835V33.1575H1.70269ZM6.56438 31.6858H13.3336C13.5602 31.6858 13.7439 31.8638 13.7439 32.0835V33.1575H12.9234H6.76951H6.15413V32.0835C6.15413 31.8638 6.3378 31.6858 6.56438 31.6858Z" fill="#D56834"/>
<path id="brief bottom" fill-rule="evenodd" clip-rule="evenodd" d="M7.50936 41.6996C10.9153 44.9219 15.2649 47.1571 20.1001 47.9474C20.1019 47.9124 20.1028 47.8772 20.1028 47.8417V41.6996H14.9746H12.9234H7.50936Z" fill="#BD6E28"/>
</g>
<defs>
<clipPath id="clip0_68_290">
<rect width="48" height="48" fill="white" transform="matrix(-1 0 0 1 48 0.262695)"/>
</clipPath>
</defs>
</svg>
