<svg
        class="dee-close"
        width="24"
        height="25"
        viewBox="0 0 24 25"
        fill="none"
        xmlns="http://www.w3.org/2000/svg"
>
    <path
            fill-rule="evenodd"
            clip-rule="evenodd"
            d="M3.93934 4.70204C4.52513 4.11625 5.47487 4.11625 6.06066 4.70204L12 10.6414L17.9393 4.70204C18.5251 4.11625 19.4749 4.11625 20.0607 4.70204C20.6464 5.28782 20.6464 6.23757 20.0607 6.82336L14.1213 12.7627L20.0607 18.702C20.6464 19.2878 20.6464 20.2376 20.0607 20.8234C19.4749 21.4091 18.5251 21.4091 17.9393 20.8234L12 14.884L6.06066 20.8234C5.47487 21.4091 4.52513 21.4091 3.93934 20.8234C3.35355 20.2376 3.35355 19.2878 3.93934 18.702L9.87868 12.7627L3.93934 6.82336C3.35355 6.23757 3.35355 5.28782 3.93934 4.70204Z"
            fill="#E6E6E6"
    />
</svg>