<svg
        class="dee-arrow"
        width="24"
        height="25"
        viewBox="0 0 24 25"
        fill="none"
        xmlns="http://www.w3.org/2000/svg"
>
    <path
            fill-rule="evenodd"
            clip-rule="evenodd"
            d="M13.7174 5.58698C14.0906 5.17986 14.7231 5.15235 15.1303 5.52555L21.6757 11.5255C21.8823 11.715 22 11.9824 22 12.2627C22 12.543 21.8823 12.8104 21.6757 12.9999L15.1303 18.9999C14.7231 19.373 14.0906 19.3455 13.7174 18.9384C13.3442 18.5313 13.3717 17.8987 13.7788 17.5255L18.4292 13.2627H2.96818C2.4159 13.2627 1.96818 12.815 1.96818 12.2627C1.96818 11.7104 2.4159 11.2627 2.96818 11.2627H18.4292L13.7788 6.99986C13.3717 6.62666 13.3442 5.9941 13.7174 5.58698Z"
            fill="#333333"
    />
</svg>