<svg
        class="dee-email"
        width="32"
        height="33"
        viewBox="0 0 32 33"
        fill="none"
        xmlns="http://www.w3.org/2000/svg"
>
    <path
            fill-rule="evenodd"
            clip-rule="evenodd"
            d="M6.66669 6.09595C4.45755 6.09595 2.66669 7.88681 2.66669 10.0959V23.4293C2.66669 25.6384 4.45755 27.4293 6.66669 27.4293H25.3334C27.5425 27.4293 29.3334 25.6384 29.3334 23.4293V10.0959C29.3334 7.88681 27.5425 6.09595 25.3334 6.09595H6.66669ZM9.06068 10.3686C8.47489 9.78283 7.52515 9.78283 6.93936 10.3686C6.35357 10.9544 6.35357 11.9042 6.93936 12.4899L12.1109 17.6615C14.2588 19.8094 17.7412 19.8094 19.8891 17.6615L25.0607 12.4899C25.6465 11.9042 25.6465 10.9544 25.0607 10.3686C24.4749 9.78283 23.5251 9.78283 22.9394 10.3686L17.7678 15.5402C16.7915 16.5165 15.2086 16.5165 14.2323 15.5402L9.06068 10.3686Z"
            fill="#FFCC19"
    />
</svg>