<svg width="1280" height="567" viewBox="0 0 1280 567" fill="none" xmlns="http://www.w3.org/2000/svg">
<g clip-path="url(#clip0_43_500)">
<rect width="1280" height="566" transform="translate(0 0.262695)" fill="white"/>
<path opacity="0.2" d="M360.861 534.562C405.935 527.228 575.534 348.665 654.699 260.3C658.265 258.008 664.114 254.799 658.979 260.3C569.401 369.699 508.018 473.954 488.524 512.407L475.686 567.412L423.622 600.263C383.921 581.418 315.786 541.896 360.861 534.562Z" fill="#E6E6E6"/>
<path opacity="0.2" d="M602.825 590.588C690.255 577.117 1028.94 242.566 1182.5 80.2627C1189.42 76.0531 1191.04 76.738 1181.08 86.841C1007.33 287.778 782.812 553.135 745 623.763L825.55 650.925L724.563 711.263C647.554 676.651 515.395 604.058 602.825 590.588Z" fill="#E6E6E6"/>
<path opacity="0.5" d="M1009.5 417.263C1033.9 416.463 1094.67 358.263 1122 329.263L1128 331.263C1116.17 346.596 1086.8 384.563 1064 413.763C1035.5 450.263 1071 459.263 1104.5 458.763C1138 458.263 1152.5 428.263 1170.5 442.763C1188.5 457.263 1195.5 452.263 1228 428.263C1260.5 404.263 1295 414.263 1307.5 448.763C1317.5 476.363 1304.33 518.263 1296.5 535.763L1189.5 569.263L855.5 577.763L652 528.763C656.167 500.263 670.3 440.963 693.5 431.763C722.5 420.263 737.5 448.763 766.5 452.263C795.5 455.763 802.5 425.263 797 395.763C791.5 366.263 834 342.763 855.5 365.263C877 387.763 863.5 403.763 906 384.763C948.5 365.763 979 418.263 1009.5 417.263Z" fill="#E6E6E6"/>
<path opacity="0.5" d="M310.5 368.799C368.9 353.199 513.167 224.632 578 162.299L586 164.299C541 210.799 442.6 312.999 409 349.799C367 395.799 381.5 412.299 417.5 401.299C453.5 390.299 451.5 401.299 474 425.799C496.5 450.299 506.5 403.299 549.5 401.299C583.9 399.699 589.167 431.299 587.5 447.299L506.5 540.299L73 511.799L-55 277.799C-44.8734 211.132 -28.3636 101.318 -22.7281 60.3404C-22.8662 56.7142 -22.6276 53.1813 -22 49.7991C-20.008 39.0644 -20.5726 44.667 -22.7281 60.3404C-20.886 108.714 47.9847 173.685 154.5 118.799C269 59.7991 284 174.763 275 247.763C271.329 277.537 237.5 388.299 310.5 368.799Z" fill="#E6E6E6"/>
<path d="M426 478.763C558.8 446.363 821.333 238.596 936 138.763L957.5 156.263C848.667 263.763 666.225 459.065 738 513.263C811.5 568.763 864.5 446.763 936 449.263C1007.5 451.763 1016 489.763 1087.5 521.263C1159 552.763 1164.5 444.263 1246.5 471.763C1312.1 493.763 1322.17 581.596 1319 622.763H-38.5C-74.5 470.596 -124.9 181.563 -38.5 242.763C69.5 319.263 41 216.263 159.5 177.763C278 139.263 300 274.263 272.5 334.763C223.191 443.243 260 519.263 426 478.763Z" fill="#F6931D"/>
<path d="M949.014 143.935L949.19 144.396C949.245 144.545 949.328 144.744 949.399 144.954L949.655 145.691C949.755 145.972 949.837 146.257 949.943 146.587C950.045 146.912 950.166 147.277 950.26 147.635L950.59 148.813C950.698 149.224 950.79 149.636 950.899 150.086C951.371 152.026 951.705 153.996 951.901 155.983C952.013 157.04 952.061 158.094 952.084 159.178C952.086 160.24 952.06 161.329 951.961 162.393C951.863 163.451 951.703 164.502 951.48 165.541C951.256 166.561 950.961 167.564 950.596 168.542C949.869 170.481 948.85 172.273 947.525 173.857C946.87 174.656 946.104 175.368 945.346 176.106C944.576 176.834 943.789 177.561 942.967 178.266C941.305 179.708 939.569 181.062 937.765 182.323C935.944 183.604 934.028 184.79 932.063 185.879C931.078 186.419 930.081 186.935 929.071 187.425C928.064 187.909 927.046 188.367 926.017 188.801C923.965 189.657 921.897 190.4 919.846 191.016C917.867 191.614 915.859 192.114 913.831 192.514C909.951 193.288 906.39 193.605 903.743 193.673L902.797 193.689L901.947 193.688L900.571 193.651L899.689 193.6L899.378 193.573L899.351 193.261L899.299 192.379L899.263 191.003L899.262 190.154L899.278 189.207C899.346 186.56 899.663 183 900.437 179.12C900.837 177.091 901.337 175.084 901.934 173.104C902.55 171.054 903.293 168.986 904.149 166.934C904.583 165.905 905.042 164.886 905.525 163.88C906.015 162.874 906.53 161.873 907.071 160.888C908.16 158.923 909.347 157.007 910.628 155.185C911.888 153.382 913.242 151.645 914.684 149.983C915.389 149.162 916.116 148.374 916.844 147.605C917.582 146.846 918.295 146.081 919.094 145.425C920.678 144.101 922.47 143.081 924.409 142.354C925.387 141.99 926.389 141.695 927.409 141.471C928.448 141.248 929.499 141.087 930.557 140.99C931.621 140.89 932.711 140.865 933.772 140.866C934.856 140.889 935.91 140.937 936.967 141.05C938.954 141.245 940.925 141.58 942.865 142.051C943.314 142.161 943.726 142.252 944.137 142.361L945.316 142.691C945.674 142.785 946.038 142.905 946.363 143.007C946.693 143.114 946.978 143.195 947.26 143.296L947.997 143.552C948.206 143.623 948.406 143.705 948.554 143.76C948.857 143.875 949.014 143.935 949.014 143.935Z" fill="#FFCC19"/>
<path d="M915.266 110.186L896.146 129.306C894.824 130.627 895.76 132.887 897.629 132.887H913.699C914.255 132.887 914.789 133.108 915.182 133.501L925.616 143.935L942.563 109.571H916.749C916.474 109.571 916.201 109.625 915.946 109.731C915.692 109.836 915.461 109.991 915.266 110.186ZM951.996 165.778L962.43 176.212C962.823 176.606 963.044 177.139 963.044 177.696V193.765C963.044 195.634 965.304 196.57 966.625 195.249L985.745 176.129C986.138 175.735 986.359 175.202 986.359 174.645V148.832L951.996 165.778Z" fill="#D56834"/>
<path d="M1028.32 66.9759L1028.35 67.1438C1028.36 67.2543 1028.38 67.4246 1028.4 67.6348C1028.43 68.0548 1028.51 68.7056 1028.55 69.4892C1028.67 71.1013 1028.75 73.3707 1028.69 76.101C1028.64 78.8329 1028.45 82.0242 1028.03 85.4883C1027.93 86.3652 1027.8 87.2335 1027.67 88.1358C1027.55 89.0473 1027.38 89.9377 1027.23 90.8709C1026.91 92.729 1026.51 94.6198 1026.05 96.5485C1025.09 100.551 1023.88 104.488 1022.41 108.334C1020.9 112.294 1019.08 116.251 1016.95 120.094C1014.82 123.933 1012.4 127.679 1009.69 131.239C1006.98 134.803 1004 138.184 1000.79 141.348C997.585 144.511 994.166 147.461 990.573 150.139C989.675 150.808 988.771 151.466 987.848 152.095C986.934 152.735 986 153.346 985.07 153.952C983.2 155.155 981.29 156.281 979.361 157.337C975.563 159.415 971.628 161.232 967.583 162.776C963.739 164.239 959.808 165.459 955.811 166.429C953.887 166.893 952.006 167.301 950.151 167.623L948.786 167.869C948.333 167.947 947.874 168.011 947.429 168.081L946.106 168.282L944.795 168.449C941.349 168.885 938.179 169.099 935.467 169.173C932.758 169.251 930.502 169.184 928.908 169.083C928.132 169.054 927.486 168.979 927.071 168.95C926.863 168.935 926.694 168.912 926.585 168.901L926.418 168.882C925.157 168.742 924.201 167.741 924.067 166.53L924.048 166.364C924.037 166.255 924.014 166.086 923.999 165.878C923.97 165.463 923.895 164.817 923.866 164.041C923.765 162.447 923.698 160.191 923.776 157.482C923.85 154.77 924.064 151.6 924.5 148.154L924.667 146.843L924.868 145.521C924.938 145.075 925.002 144.616 925.079 144.163L925.325 142.798C925.647 140.943 926.056 139.062 926.519 137.138C927.489 133.141 928.71 129.21 930.173 125.366C931.717 121.322 933.534 117.387 935.612 113.588C936.668 111.659 937.794 109.75 938.997 107.88C939.602 106.949 940.214 106.015 940.854 105.102C941.483 104.177 942.141 103.274 942.81 102.376C945.487 98.7834 948.437 95.3641 951.601 92.1589C954.765 88.9535 958.146 85.9658 961.71 83.2597C965.27 80.5502 969.015 78.1255 972.855 75.9942C976.698 73.8661 980.655 72.0505 984.615 70.5376C988.461 69.0709 992.397 67.8551 996.4 66.8976C998.329 66.438 1000.22 66.0398 1002.08 65.7208C1003.01 65.5655 1003.9 65.3954 1004.81 65.276C1005.72 65.1473 1006.58 65.0139 1007.46 64.9208C1010.92 64.5037 1014.12 64.3112 1016.85 64.2566C1019.58 64.2005 1021.85 64.2804 1023.46 64.3998C1024.24 64.437 1024.89 64.5156 1025.31 64.5498C1025.52 64.5672 1025.69 64.5912 1025.8 64.6039L1025.97 64.6242C1027.23 64.7758 1028.18 65.7722 1028.32 66.9759Z" fill="#333333"/>
<path d="M959.1 133.849L959.254 134.265C959.34 134.523 959.455 134.895 959.535 135.31C959.724 136.168 959.786 137.213 959.445 138.121C959.277 138.578 958.965 138.959 958.673 139.419L957.699 140.884L955.361 144.394C954.433 145.769 953.497 147.139 952.553 148.504C951.5 150.022 950.436 151.531 949.358 153.032L947.642 155.394L945.858 157.789C944.648 159.391 943.41 161.01 942.151 162.608C940.904 164.199 939.642 165.779 938.364 167.346C937.103 168.897 935.867 170.429 934.65 171.89L932.866 174.05C932.274 174.748 931.737 175.471 931.113 176.074C930.492 176.681 929.776 177.16 928.954 177.492C928.138 177.831 927.245 178.054 926.382 178.263C924.755 178.648 923.11 178.955 921.453 179.181C920.687 179.285 919.955 179.368 919.263 179.43C918.575 179.495 917.91 179.521 917.326 179.563C916.739 179.6 916.178 179.597 915.709 179.614C915.233 179.623 914.804 179.608 914.469 179.607C914.126 179.599 913.853 179.582 913.674 179.576L913.393 179.557L913.374 179.276C913.368 179.097 913.351 178.823 913.343 178.481C913.342 178.145 913.327 177.717 913.336 177.241C913.353 176.772 913.35 176.211 913.387 175.623C913.429 175.04 913.455 174.375 913.52 173.687C913.582 172.995 913.664 172.263 913.769 171.497C913.995 169.84 914.302 168.195 914.687 166.568C914.896 165.705 915.119 164.812 915.458 163.996C915.79 163.173 916.269 162.458 916.876 161.837C917.479 161.213 918.202 160.676 918.9 160.084L921.06 158.3C922.522 157.083 924.053 155.847 925.604 154.586C927.153 153.323 928.74 152.053 930.343 150.799C931.94 149.54 933.559 148.302 935.161 147.092L937.556 145.308L939.919 143.592C941.419 142.515 942.928 141.45 944.446 140.397C945.897 139.393 947.278 138.453 948.556 137.589L952.066 135.251L953.531 134.278C953.991 133.985 954.372 133.674 954.829 133.505C955.737 133.164 956.782 133.227 957.64 133.415C958.055 133.495 958.427 133.611 958.685 133.696L959.1 133.849Z" fill="#D56834"/>
<g clip-path="url(#clip1_43_500)">
<path d="M968.964 105.087C968.964 114.83 976.873 122.728 986.63 122.728C996.386 122.728 1004.3 114.83 1004.3 105.087C1004.3 95.3448 996.386 87.447 986.63 87.447C976.873 87.447 968.964 95.3448 968.964 105.087Z" fill="#E6E6E6"/>
<path fill-rule="evenodd" clip-rule="evenodd" d="M986.63 120.254C978.235 120.254 971.437 113.46 971.437 105.087C971.437 96.7142 978.235 89.9203 986.63 89.9203C995.024 89.9203 1001.82 96.7142 1001.82 105.087C1001.82 113.46 995.024 120.254 986.63 120.254ZM986.63 122.728C976.873 122.728 968.964 114.83 968.964 105.087C968.964 95.3448 976.873 87.447 986.63 87.447C996.386 87.447 1004.3 95.3448 1004.3 105.087C1004.3 114.83 996.386 122.728 986.63 122.728Z" fill="#E6E6E6"/>
<path d="M992.754 100.568H994.928C995.05 100.568 995.148 100.666 995.148 100.788C995.148 102.087 994.095 103.141 992.796 103.141H992.422C992.651 102.497 992.776 101.804 992.776 101.082C992.776 100.909 992.768 100.738 992.754 100.568Z" fill="#F6931D"/>
<path d="M981.314 97.9952H983.756L980.539 100.253C980.649 99.439 980.918 98.6756 981.314 97.9952Z" fill="#FFCC19"/>
<path d="M980.589 102.22C980.784 102.229 980.984 102.176 981.157 102.055L986.941 97.9952L991.945 97.9952C992.473 98.9024 992.776 99.9571 992.776 101.082C992.776 104.477 990.024 107.228 986.63 107.228C983.624 107.228 981.122 105.071 980.589 102.22Z" fill="#FFCC19"/>
<ellipse cx="1.41328" cy="1.41333" rx="1.41328" ry="1.41333" transform="matrix(-1 0 0 1 990.869 99.174)" fill="#333333"/>
<ellipse cx="0.353321" cy="0.353321" rx="0.353321" ry="0.353321" transform="matrix(-1 0 0 1 989.809 99.5435)" fill="white"/>
<path fill-rule="evenodd" clip-rule="evenodd" d="M982.17 93.6493C981.328 94.4914 980.755 95.5526 980.508 96.6989C980.459 96.7374 980.413 96.7787 980.369 96.8228C980.227 96.9649 980.113 97.1302 980.032 97.3097C979.902 97.595 980.089 97.864 980.37 97.959C980.37 97.9648 980.37 97.9705 980.369 97.9762C980.369 97.9826 980.369 97.9889 980.369 97.9952H983.756L980.106 100.557C979.692 100.847 979.592 101.418 979.882 101.831C980.173 102.245 980.743 102.345 981.157 102.055L986.941 97.9952L992.661 97.9952V97.9952H993.355C993.745 97.9952 994.075 97.6651 993.914 97.3097C993.832 97.1302 993.718 96.9649 993.576 96.8228C993.272 96.5189 992.863 96.3451 992.434 96.3375C992.151 95.3301 991.614 94.4021 990.861 93.6493C989.709 92.4968 988.145 91.8492 986.515 91.8492C984.885 91.8492 983.322 92.4968 982.17 93.6493Z" fill="white"/>
<path d="M1004.3 105.113C1004.3 114.509 996.96 122.192 987.703 122.747C987.703 122.747 987.703 122.747 987.703 122.747C990.106 122.603 992.379 121.979 994.428 120.969C995.764 119.483 996.577 117.517 996.577 115.361C996.577 112.478 995.123 109.935 992.908 108.424L1004.21 103.364C1004.27 103.94 1004.3 104.523 1004.3 105.113Z" fill="#F6931D"/>
<path d="M969.06 106.971C969.989 115.854 977.5 122.779 986.63 122.779C989.429 122.779 992.076 122.128 994.428 120.969C995.764 119.483 996.577 117.517 996.577 115.361C996.577 110.727 992.821 106.971 988.187 106.971H969.06Z" fill="#FFCC19"/>
<path fill-rule="evenodd" clip-rule="evenodd" d="M970.217 111.66C970.866 113.287 971.75 114.794 972.827 116.14H973.946H978.476H979.986H983.761V113.154C983.761 112.33 983.084 111.66 982.251 111.66H980.288V110.87C980.288 110.061 979.612 109.406 978.778 109.406H973.795C972.962 109.406 972.286 110.061 972.286 110.87V111.66H970.217ZM973.795 110.577H978.778C978.945 110.577 979.08 110.708 979.08 110.87V111.66H978.476H973.946H973.494V110.87C973.494 110.708 973.629 110.577 973.795 110.577Z" fill="#D56834"/>
<path fill-rule="evenodd" clip-rule="evenodd" d="M974.491 117.948C976.998 120.32 980.2 121.965 983.759 122.547C983.76 122.521 983.761 122.495 983.761 122.469V117.948H979.986H978.476H974.491Z" fill="#BD6E28"/>
</g>
<g opacity="0.3" clip-path="url(#clip2_43_500)">
<path d="M664.603 252.782L664.634 252.864C664.644 252.891 664.658 252.926 664.671 252.963L664.716 253.094C664.734 253.144 664.749 253.195 664.768 253.254C664.786 253.311 664.807 253.376 664.824 253.44L664.883 253.649C664.902 253.722 664.918 253.796 664.938 253.876C665.021 254.221 665.081 254.571 665.116 254.924C665.136 255.112 665.144 255.299 665.148 255.492C665.149 255.681 665.144 255.874 665.126 256.064C665.109 256.252 665.081 256.439 665.041 256.623C665.001 256.805 664.949 256.983 664.884 257.157C664.755 257.501 664.573 257.82 664.338 258.102C664.221 258.244 664.085 258.37 663.95 258.502C663.814 258.631 663.674 258.76 663.528 258.885C663.232 259.142 662.923 259.383 662.603 259.607C662.279 259.834 661.938 260.045 661.589 260.239C661.414 260.335 661.237 260.427 661.057 260.514C660.878 260.6 660.697 260.681 660.514 260.758C660.149 260.911 659.782 261.043 659.417 261.152C659.065 261.258 658.708 261.347 658.348 261.418C657.658 261.556 657.025 261.612 656.554 261.624L656.386 261.627L656.235 261.627L655.99 261.621L655.834 261.611L655.778 261.607L655.773 261.551L655.764 261.394L655.758 261.15L655.758 260.999L655.761 260.831C655.773 260.36 655.829 259.727 655.967 259.037C656.038 258.677 656.127 258.32 656.233 257.968C656.342 257.603 656.474 257.236 656.627 256.871C656.704 256.688 656.785 256.507 656.871 256.328C656.958 256.149 657.05 255.971 657.146 255.796C657.34 255.447 657.551 255.106 657.778 254.782C658.002 254.462 658.243 254.153 658.499 253.857C658.625 253.711 658.754 253.571 658.883 253.435C659.015 253.3 659.141 253.164 659.283 253.047C659.565 252.812 659.883 252.63 660.228 252.501C660.402 252.436 660.58 252.384 660.762 252.344C660.946 252.304 661.133 252.276 661.321 252.259C661.51 252.241 661.704 252.236 661.893 252.237C662.086 252.241 662.273 252.249 662.461 252.269C662.814 252.304 663.164 252.363 663.509 252.447C663.589 252.467 663.662 252.483 663.735 252.502L663.945 252.561C664.009 252.578 664.073 252.599 664.131 252.617C664.19 252.636 664.241 252.651 664.291 252.668L664.422 252.714C664.459 252.727 664.494 252.741 664.521 252.751C664.575 252.771 664.603 252.782 664.603 252.782Z" fill="#F6931D"/>
<path d="M658.603 246.782L655.204 250.181C654.969 250.416 655.135 250.818 655.467 250.818H658.324C658.423 250.818 658.518 250.857 658.588 250.927L660.443 252.782L663.456 246.673H658.867C658.818 246.673 658.769 246.683 658.724 246.701C658.679 246.72 658.637 246.748 658.603 246.782ZM665.133 256.665L666.987 258.52C667.057 258.59 667.097 258.685 667.097 258.784V261.641C667.097 261.973 667.498 262.14 667.733 261.905L671.132 258.506C671.202 258.436 671.242 258.341 671.242 258.242V253.653L665.133 256.665Z" fill="#D56834"/>
<path d="M678.702 239.101L678.706 239.13C678.708 239.15 678.712 239.18 678.715 239.218C678.722 239.292 678.735 239.408 678.742 239.547C678.763 239.834 678.778 240.237 678.768 240.723C678.758 241.208 678.724 241.776 678.649 242.392C678.633 242.548 678.609 242.702 678.586 242.862C678.565 243.024 678.535 243.183 678.507 243.349C678.451 243.679 678.38 244.015 678.298 244.358C678.128 245.07 677.912 245.769 677.651 246.453C677.382 247.157 677.059 247.861 676.681 248.544C676.302 249.226 675.871 249.892 675.389 250.525C674.908 251.159 674.377 251.76 673.807 252.322C673.237 252.885 672.629 253.409 671.991 253.885C671.831 254.004 671.67 254.121 671.506 254.233C671.344 254.347 671.178 254.455 671.012 254.563C670.68 254.777 670.34 254.977 669.997 255.165C669.322 255.534 668.623 255.857 667.904 256.132C667.22 256.392 666.521 256.609 665.811 256.781C665.469 256.864 665.134 256.936 664.805 256.993L664.562 257.037C664.481 257.051 664.4 257.062 664.321 257.075L664.086 257.111L663.852 257.14C663.24 257.218 662.676 257.256 662.194 257.269C661.713 257.283 661.311 257.271 661.028 257.253C660.89 257.248 660.775 257.234 660.701 257.229C660.665 257.227 660.634 257.222 660.615 257.221L660.585 257.217C660.361 257.192 660.191 257.014 660.167 256.799L660.164 256.77C660.162 256.75 660.158 256.72 660.155 256.683C660.15 256.609 660.137 256.495 660.132 256.357C660.114 256.073 660.102 255.672 660.116 255.191C660.129 254.708 660.167 254.145 660.244 253.532L660.274 253.299L660.31 253.064C660.322 252.985 660.334 252.903 660.347 252.823L660.391 252.58C660.448 252.25 660.521 251.916 660.603 251.574C660.776 250.863 660.993 250.164 661.253 249.481C661.527 248.762 661.851 248.062 662.22 247.387C662.408 247.044 662.608 246.705 662.822 246.372C662.929 246.207 663.038 246.041 663.152 245.878C663.264 245.714 663.381 245.554 663.5 245.394C663.976 244.755 664.5 244.147 665.062 243.578C665.625 243.008 666.226 242.477 666.86 241.995C667.492 241.514 668.158 241.083 668.841 240.704C669.524 240.326 670.227 240.003 670.932 239.734C671.615 239.473 672.315 239.257 673.027 239.087C673.37 239.005 673.706 238.934 674.036 238.877C674.202 238.85 674.36 238.82 674.522 238.798C674.683 238.775 674.837 238.752 674.993 238.735C675.609 238.661 676.176 238.627 676.662 238.617C677.147 238.607 677.551 238.621 677.837 238.643C677.977 238.649 678.092 238.663 678.167 238.669C678.204 238.672 678.235 238.677 678.254 238.679L678.284 238.682C678.508 238.709 678.676 238.887 678.702 239.101Z" fill="#333333"/>
<path d="M666.396 250.989L666.423 251.063C666.438 251.109 666.459 251.175 666.473 251.249C666.506 251.401 666.518 251.587 666.457 251.749C666.427 251.83 666.372 251.898 666.32 251.979L666.146 252.24L665.731 252.864C665.566 253.108 665.399 253.352 665.232 253.594C665.045 253.864 664.855 254.133 664.664 254.399L664.359 254.819L664.041 255.245C663.826 255.53 663.606 255.818 663.382 256.102C663.161 256.385 662.936 256.666 662.709 256.944C662.485 257.22 662.265 257.492 662.049 257.752L661.732 258.136C661.627 258.26 661.531 258.389 661.42 258.496C661.31 258.604 661.182 258.689 661.036 258.748C660.891 258.808 660.732 258.848 660.579 258.885C660.29 258.953 659.997 259.008 659.703 259.048C659.567 259.067 659.436 259.081 659.313 259.092C659.191 259.104 659.073 259.109 658.969 259.116C658.865 259.123 658.765 259.122 658.682 259.125C658.597 259.127 658.521 259.124 658.461 259.124C658.4 259.122 658.352 259.119 658.32 259.118L658.27 259.115L658.266 259.065C658.265 259.033 658.262 258.984 658.261 258.924C658.261 258.864 658.258 258.788 658.26 258.703C658.263 258.62 658.262 258.52 658.269 258.416C658.276 258.312 658.281 258.194 658.292 258.071C658.303 257.948 658.318 257.818 658.337 257.682C658.377 257.388 658.431 257.095 658.5 256.806C658.537 256.652 658.577 256.494 658.637 256.349C658.696 256.202 658.781 256.075 658.889 255.965C658.996 255.854 659.125 255.758 659.249 255.653L659.633 255.336C659.893 255.12 660.165 254.9 660.441 254.676C660.716 254.451 660.998 254.225 661.283 254.002C661.567 253.779 661.855 253.558 662.14 253.343L662.566 253.026L662.986 252.721C663.252 252.53 663.521 252.34 663.79 252.153C664.048 251.975 664.294 251.808 664.521 251.654L665.145 251.238L665.405 251.065C665.487 251.013 665.555 250.958 665.636 250.928C665.798 250.867 665.983 250.878 666.136 250.912C666.21 250.926 666.276 250.947 666.322 250.962L666.396 250.989Z" fill="#D56834"/>
<path d="M669.323 245.901C669.323 246.991 670.209 247.875 671.301 247.875C672.393 247.875 673.278 246.991 673.278 245.901C673.278 244.81 672.393 243.926 671.301 243.926C670.209 243.926 669.323 244.81 669.323 245.901Z" fill="#E6E6E6"/>
</g>
<g opacity="0.3" clip-path="url(#clip3_43_500)">
<path d="M1188.6 76.7822L1188.63 76.8641C1188.64 76.8905 1188.66 76.926 1188.67 76.9632L1188.72 77.0943C1188.73 77.1444 1188.75 77.195 1188.77 77.2536C1188.79 77.3115 1188.81 77.3762 1188.82 77.4399L1188.88 77.6494C1188.9 77.7224 1188.92 77.7957 1188.94 77.8756C1189.02 78.2205 1189.08 78.5708 1189.12 78.924C1189.14 79.112 1189.14 79.2994 1189.15 79.492C1189.15 79.6808 1189.14 79.8745 1189.13 80.0636C1189.11 80.2517 1189.08 80.4386 1189.04 80.6233C1189 80.8046 1188.95 80.9828 1188.88 81.1567C1188.75 81.5014 1188.57 81.82 1188.34 82.1015C1188.22 82.2436 1188.09 82.3703 1187.95 82.5015C1187.81 82.6308 1187.67 82.7601 1187.53 82.8855C1187.23 83.1419 1186.92 83.3826 1186.6 83.6066C1186.28 83.8344 1185.94 84.0453 1185.59 84.2388C1185.41 84.3348 1185.24 84.4265 1185.06 84.5138C1184.88 84.5997 1184.7 84.6812 1184.51 84.7583C1184.15 84.9105 1183.78 85.0427 1183.42 85.1521C1183.07 85.2584 1182.71 85.3473 1182.35 85.4184C1181.66 85.5559 1181.02 85.6123 1180.55 85.6244L1180.39 85.6273L1180.24 85.6271L1179.99 85.6206L1179.83 85.6114L1179.78 85.6067L1179.77 85.5513L1179.76 85.3945L1179.76 85.1499L1179.76 84.9988L1179.76 84.8306C1179.77 84.36 1179.83 83.727 1179.97 83.0373C1180.04 82.6766 1180.13 82.3197 1180.23 81.9678C1180.34 81.6033 1180.47 81.2356 1180.63 80.8708C1180.7 80.6879 1180.79 80.5068 1180.87 80.3279C1180.96 80.149 1181.05 79.9711 1181.15 79.796C1181.34 79.4466 1181.55 79.106 1181.78 78.7822C1182 78.4616 1182.24 78.1529 1182.5 77.8574C1182.62 77.7113 1182.75 77.5713 1182.88 77.4346C1183.01 77.2997 1183.14 77.1636 1183.28 77.0471C1183.56 76.8116 1183.88 76.6304 1184.23 76.5011C1184.4 76.4363 1184.58 76.3838 1184.76 76.3441C1184.95 76.3044 1185.13 76.2759 1185.32 76.2585C1185.51 76.2409 1185.7 76.2363 1185.89 76.2366C1186.09 76.2407 1186.27 76.2492 1186.46 76.2692C1186.81 76.304 1187.16 76.3635 1187.51 76.4472C1187.59 76.4667 1187.66 76.483 1187.74 76.5023L1187.95 76.5609C1188.01 76.5777 1188.07 76.5991 1188.13 76.6172C1188.19 76.6361 1188.24 76.6507 1188.29 76.6685L1188.42 76.714C1188.46 76.7266 1188.49 76.7413 1188.52 76.7511C1188.57 76.7715 1188.6 76.7822 1188.6 76.7822Z" fill="#F6931D"/>
<path d="M1182.6 70.7823L1179.2 74.1814C1178.97 74.4163 1179.14 74.8181 1179.47 74.8181H1182.32C1182.42 74.8181 1182.52 74.8573 1182.59 74.9273L1184.44 76.7822L1187.46 70.6731H1182.87C1182.82 70.6731 1182.77 70.6827 1182.72 70.7015C1182.68 70.7202 1182.64 70.7477 1182.6 70.7823ZM1189.13 80.6654L1190.99 82.5204C1191.06 82.5903 1191.1 82.6852 1191.1 82.7841V85.6409C1191.1 85.9731 1191.5 86.1395 1191.73 85.9046L1195.13 82.5055C1195.2 82.4356 1195.24 82.3407 1195.24 82.2418V77.6527L1189.13 80.6654Z" fill="#D56834"/>
<path d="M1202.7 63.1006L1202.71 63.1304C1202.71 63.1501 1202.71 63.1804 1202.72 63.2177C1202.72 63.2924 1202.74 63.4081 1202.74 63.5474C1202.76 63.834 1202.78 64.2374 1202.77 64.7228C1202.76 65.2085 1202.72 65.7758 1202.65 66.3917C1202.63 66.5476 1202.61 66.7019 1202.59 66.8623C1202.57 67.0244 1202.53 67.1827 1202.51 67.3486C1202.45 67.6789 1202.38 68.015 1202.3 68.3579C1202.13 69.0696 1201.91 69.7694 1201.65 70.4531C1201.38 71.1572 1201.06 71.8605 1200.68 72.5437C1200.3 73.2264 1199.87 73.8922 1199.39 74.5251C1198.91 75.1587 1198.38 75.7598 1197.81 76.3222C1197.24 76.8847 1196.63 77.4091 1195.99 77.8851C1195.83 78.004 1195.67 78.121 1195.51 78.2329C1195.34 78.3466 1195.18 78.4553 1195.01 78.563C1194.68 78.7769 1194.34 78.977 1194 79.1648C1193.32 79.5342 1192.62 79.8572 1191.9 80.1316C1191.22 80.3917 1190.52 80.6087 1189.81 80.7812C1189.47 80.8637 1189.13 80.9362 1188.8 80.9935L1188.56 81.0372C1188.48 81.051 1188.4 81.0623 1188.32 81.0747L1188.09 81.1106L1187.85 81.1403C1187.24 81.2178 1186.68 81.2557 1186.19 81.269C1185.71 81.2828 1185.31 81.2709 1185.03 81.2529C1184.89 81.2477 1184.78 81.2345 1184.7 81.2293C1184.66 81.2266 1184.63 81.2225 1184.62 81.2205L1184.59 81.2172C1184.36 81.1923 1184.19 81.0143 1184.17 80.7992L1184.16 80.7696C1184.16 80.7502 1184.16 80.7202 1184.16 80.6832C1184.15 80.6094 1184.14 80.4945 1184.13 80.3566C1184.11 80.0733 1184.1 79.6722 1184.12 79.1905C1184.13 78.7084 1184.17 78.1448 1184.24 77.5323L1184.27 77.2992L1184.31 77.0641C1184.32 76.9849 1184.33 76.9033 1184.35 76.8228L1184.39 76.58C1184.45 76.2503 1184.52 75.9159 1184.6 75.5738C1184.78 74.8633 1184.99 74.1643 1185.25 73.4811C1185.53 72.762 1185.85 72.0625 1186.22 71.3872C1186.41 71.0443 1186.61 70.7048 1186.82 70.3723C1186.93 70.2069 1187.04 70.0409 1187.15 69.8785C1187.26 69.7142 1187.38 69.5536 1187.5 69.3939C1187.98 68.7552 1188.5 68.1474 1189.06 67.5776C1189.62 67.0077 1190.23 66.4766 1190.86 65.9955C1191.49 65.5138 1192.16 65.0827 1192.84 64.7038C1193.52 64.3255 1194.23 64.0027 1194.93 63.7338C1195.62 63.473 1196.32 63.2569 1197.03 63.0867C1197.37 63.0049 1197.71 62.9342 1198.04 62.8774C1198.2 62.8498 1198.36 62.8196 1198.52 62.7984C1198.68 62.7755 1198.84 62.7518 1198.99 62.7352C1199.61 62.6611 1200.18 62.6269 1200.66 62.6172C1201.15 62.6072 1201.55 62.6214 1201.84 62.6426C1201.98 62.6492 1202.09 62.6632 1202.17 62.6693C1202.2 62.6724 1202.23 62.6766 1202.25 62.6789L1202.28 62.6825C1202.51 62.7094 1202.68 62.8866 1202.7 63.1006Z" fill="#333333"/>
<path d="M1190.4 74.9891L1190.42 75.063C1190.44 75.109 1190.46 75.1751 1190.47 75.2488C1190.51 75.4014 1190.52 75.5871 1190.46 75.7486C1190.43 75.8298 1190.37 75.8975 1190.32 75.9794L1190.15 76.2397L1189.73 76.8637C1189.57 77.1082 1189.4 77.3518 1189.23 77.5944C1189.04 77.8643 1188.86 78.1326 1188.66 78.3993L1188.36 78.8193L1188.04 79.2451C1187.83 79.5299 1187.61 79.8177 1187.38 80.1017C1187.16 80.3847 1186.94 80.6655 1186.71 80.9441C1186.49 81.2199 1186.27 81.4921 1186.05 81.752L1185.73 82.136C1185.63 82.26 1185.53 82.3886 1185.42 82.4958C1185.31 82.6037 1185.18 82.6888 1185.04 82.7478C1184.89 82.8081 1184.73 82.8478 1184.58 82.8848C1184.29 82.9534 1184 83.0079 1183.7 83.0481C1183.57 83.0667 1183.44 83.0813 1183.31 83.0923C1183.19 83.1039 1183.07 83.1086 1182.97 83.116C1182.86 83.1226 1182.76 83.1221 1182.68 83.125C1182.6 83.1267 1182.52 83.1239 1182.46 83.1239C1182.4 83.1225 1182.35 83.1194 1182.32 83.1184L1182.27 83.115L1182.27 83.065C1182.27 83.0332 1182.26 82.9845 1182.26 82.9236C1182.26 82.864 1182.26 82.7879 1182.26 82.7032C1182.26 82.6199 1182.26 82.5201 1182.27 82.4157C1182.28 82.312 1182.28 82.1937 1182.29 82.0714C1182.3 81.9485 1182.32 81.8182 1182.34 81.6821C1182.38 81.3875 1182.43 81.0951 1182.5 80.8058C1182.54 80.6524 1182.58 80.4936 1182.64 80.3486C1182.7 80.2023 1182.78 80.0751 1182.89 79.9648C1183 79.8539 1183.12 79.7583 1183.25 79.6532L1183.63 79.3359C1183.89 79.1196 1184.16 78.8998 1184.44 78.6757C1184.72 78.4512 1185 78.2254 1185.28 78.0024C1185.57 77.7786 1185.85 77.5585 1186.14 77.3434L1186.57 77.0263L1186.99 76.7211C1187.25 76.5296 1187.52 76.3403 1187.79 76.1533C1188.05 75.9746 1188.29 75.8076 1188.52 75.6539L1189.15 75.2384L1189.41 75.0653C1189.49 75.0132 1189.55 74.9579 1189.64 74.928C1189.8 74.8673 1189.98 74.8784 1190.14 74.912C1190.21 74.9262 1190.28 74.9467 1190.32 74.9619L1190.4 74.9891Z" fill="#D56834"/>
<path d="M1193.32 69.9007C1193.32 70.9912 1194.21 71.8752 1195.3 71.8752C1196.39 71.8752 1197.28 70.9912 1197.28 69.9007C1197.28 68.8102 1196.39 67.9261 1195.3 67.9261C1194.21 67.9261 1193.32 68.8102 1193.32 69.9007Z" fill="#E6E6E6"/>
</g>
<path d="M604.009 138.686L604.12 138.976C604.154 139.07 604.207 139.196 604.251 139.328L604.412 139.792C604.475 139.969 604.527 140.148 604.594 140.356C604.658 140.561 604.734 140.79 604.793 141.016L605.001 141.758C605.069 142.016 605.127 142.276 605.196 142.559C605.493 143.78 605.703 145.021 605.827 146.272C605.897 146.938 605.927 147.601 605.942 148.284C605.943 148.952 605.927 149.638 605.864 150.308C605.803 150.974 605.702 151.636 605.561 152.29C605.421 152.932 605.235 153.563 605.005 154.179C604.547 155.4 603.905 156.528 603.071 157.526C602.659 158.029 602.177 158.478 601.699 158.942C601.215 159.4 600.719 159.858 600.202 160.302C599.155 161.21 598.062 162.063 596.926 162.856C595.779 163.663 594.573 164.41 593.336 165.095C592.716 165.435 592.088 165.76 591.452 166.069C590.818 166.373 590.177 166.662 589.529 166.935C588.237 167.474 586.935 167.942 585.644 168.33C584.398 168.706 583.134 169.021 581.856 169.273C579.414 169.76 577.172 169.96 575.505 170.002L574.909 170.013L574.374 170.012L573.508 169.989L572.953 169.957L572.756 169.94L572.739 169.743L572.707 169.188L572.684 168.322L572.683 167.787L572.694 167.191C572.736 165.524 572.936 163.282 573.423 160.84C573.675 159.562 573.99 158.298 574.366 157.052C574.754 155.761 575.222 154.459 575.761 153.167C576.034 152.519 576.323 151.878 576.627 151.244C576.936 150.61 577.259 149.98 577.601 149.36C578.286 148.123 579.033 146.917 579.84 145.77C580.633 144.634 581.486 143.541 582.394 142.494C582.838 141.977 583.296 141.481 583.754 140.997C584.218 140.519 584.667 140.037 585.17 139.625C586.168 138.791 587.296 138.149 588.517 137.691C589.132 137.461 589.764 137.276 590.406 137.135C591.06 136.994 591.722 136.893 592.388 136.832C593.058 136.769 593.744 136.753 594.412 136.754C595.095 136.769 595.758 136.799 596.424 136.869C597.675 136.993 598.916 137.203 600.137 137.5C600.42 137.569 600.679 137.627 600.938 137.695L601.68 137.903C601.906 137.962 602.135 138.038 602.34 138.102C602.548 138.169 602.727 138.221 602.904 138.284L603.368 138.445C603.5 138.489 603.626 138.542 603.719 138.576C603.91 138.648 604.009 138.686 604.009 138.686Z" fill="#F6931D"/>
<path d="M582.76 117.436L570.721 129.475C569.889 130.307 570.479 131.73 571.656 131.73H581.773C582.124 131.73 582.46 131.869 582.707 132.116L589.277 138.686L599.947 117.05H583.694C583.52 117.05 583.349 117.084 583.188 117.15C583.028 117.216 582.883 117.314 582.76 117.436ZM605.886 152.439L612.456 159.009C612.703 159.256 612.842 159.592 612.842 159.943V170.061C612.842 171.237 614.265 171.827 615.097 170.995L627.136 158.956C627.383 158.708 627.523 158.372 627.523 158.022V141.769L605.886 152.439Z" fill="#FFCC19"/>
<path d="M653.945 90.2304L653.958 90.3361C653.966 90.4057 653.981 90.5129 653.992 90.6453C654.014 90.9097 654.063 91.3194 654.087 91.8128C654.162 92.8279 654.212 94.2568 654.177 95.9759C654.142 97.6959 654.021 99.7052 653.759 101.886C653.7 102.439 653.616 102.985 653.535 103.553C653.46 104.127 653.353 104.688 653.255 105.275C653.054 106.445 652.803 107.636 652.514 108.85C651.911 111.371 651.146 113.849 650.222 116.271C649.269 118.764 648.126 121.255 646.786 123.675C645.444 126.093 643.918 128.451 642.212 130.692C640.508 132.936 638.627 135.065 636.609 137.057C634.59 139.049 632.438 140.906 630.176 142.592C629.61 143.013 629.041 143.428 628.46 143.824C627.884 144.227 627.296 144.612 626.71 144.993C625.533 145.751 624.331 146.459 623.116 147.124C620.725 148.433 618.247 149.577 615.7 150.549C613.28 151.47 610.805 152.238 608.289 152.849C607.077 153.141 605.893 153.398 604.725 153.601L603.865 153.756C603.58 153.805 603.291 153.845 603.011 153.889L602.178 154.016L601.352 154.121C599.183 154.395 597.187 154.53 595.479 154.577C593.774 154.626 592.353 154.584 591.35 154.52C590.861 154.502 590.454 154.455 590.193 154.436C590.062 154.427 589.955 154.412 589.887 154.405L589.782 154.394C588.988 154.305 588.386 153.675 588.301 152.913L588.29 152.808C588.283 152.74 588.268 152.633 588.259 152.502C588.24 152.241 588.193 151.834 588.175 151.345C588.111 150.342 588.069 148.921 588.118 147.216C588.165 145.508 588.299 143.512 588.574 141.343L588.679 140.517L588.806 139.684C588.85 139.404 588.89 139.115 588.939 138.83L589.094 137.97C589.297 136.802 589.553 135.618 589.846 134.406C590.456 131.89 591.225 129.415 592.146 126.995C593.118 124.448 594.262 121.97 595.57 119.579C596.236 118.364 596.944 117.162 597.702 115.985C598.083 115.399 598.468 114.811 598.871 114.235C599.267 113.654 599.681 113.085 600.103 112.519C601.788 110.257 603.646 108.104 605.638 106.086C607.63 104.068 609.759 102.187 612.002 100.483C614.244 98.7772 616.602 97.2505 619.02 95.9086C621.44 94.5687 623.931 93.4255 626.424 92.4729C628.846 91.5495 631.324 90.7839 633.845 90.1811C635.059 89.8917 636.25 89.641 637.419 89.4401C638.007 89.3424 638.568 89.2353 639.142 89.1601C639.71 89.0791 640.256 88.9951 640.808 88.9365C642.99 88.6738 644.999 88.5526 646.719 88.5183C648.438 88.4829 649.867 88.5332 650.882 88.6084C651.375 88.6318 651.785 88.6813 652.05 88.7029C652.182 88.7138 652.289 88.7289 652.359 88.7369L652.464 88.7497C653.256 88.8451 653.854 89.4725 653.945 90.2304Z" fill="#D56834"/>
<path d="M610.359 132.336L610.456 132.597C610.51 132.76 610.583 132.995 610.633 133.256C610.752 133.796 610.791 134.454 610.576 135.026C610.47 135.313 610.275 135.553 610.09 135.843L609.477 136.765L608.005 138.975C607.421 139.841 606.831 140.704 606.237 141.563C605.574 142.519 604.904 143.469 604.226 144.414L603.145 145.901L602.022 147.409C601.26 148.418 600.48 149.437 599.688 150.443C598.903 151.445 598.108 152.44 597.303 153.426C596.509 154.403 595.731 155.367 594.965 156.288L593.841 157.648C593.469 158.087 593.131 158.542 592.737 158.922C592.347 159.304 591.896 159.605 591.378 159.815C590.865 160.028 590.303 160.169 589.759 160.3C588.734 160.543 587.699 160.736 586.655 160.878C586.173 160.944 585.712 160.996 585.277 161.035C584.844 161.076 584.425 161.092 584.057 161.119C583.687 161.142 583.334 161.14 583.039 161.15C582.739 161.156 582.469 161.147 582.258 161.146C582.043 161.142 581.87 161.131 581.758 161.127L581.581 161.115L581.569 160.938C581.565 160.825 581.554 160.653 581.549 160.437C581.549 160.226 581.539 159.957 581.545 159.657C581.555 159.361 581.554 159.008 581.577 158.638C581.603 158.271 581.62 157.852 581.661 157.419C581.7 156.984 581.752 156.522 581.818 156.04C581.96 154.997 582.153 153.961 582.396 152.937C582.527 152.393 582.667 151.831 582.881 151.317C583.09 150.799 583.391 150.349 583.773 149.958C584.153 149.565 584.609 149.227 585.048 148.854L586.408 147.731C587.328 146.965 588.292 146.186 589.269 145.393C590.245 144.597 591.244 143.798 592.253 143.008C593.259 142.215 594.278 141.436 595.286 140.674L596.795 139.551L598.282 138.47C599.227 137.792 600.177 137.121 601.133 136.459C602.046 135.826 602.916 135.234 603.721 134.69L605.931 133.219L606.853 132.606C607.142 132.421 607.382 132.225 607.67 132.119C608.242 131.905 608.9 131.944 609.44 132.063C609.701 132.113 609.935 132.186 610.098 132.24L610.359 132.336Z" fill="#FFCC19"/>
<path d="M616.57 114.226C616.57 120.36 621.55 125.333 627.693 125.333C633.836 125.333 638.816 120.36 638.816 114.226C638.816 108.092 633.836 103.119 627.693 103.119C621.55 103.119 616.57 108.092 616.57 114.226Z" fill="#E6E6E6"/>
<g clip-path="url(#clip4_43_500)">
<path d="M1130.8 324.647L1130.85 324.773C1130.87 324.814 1130.89 324.869 1130.91 324.926L1130.98 325.128C1131.01 325.205 1131.03 325.283 1131.06 325.374C1131.09 325.463 1131.12 325.563 1131.15 325.661L1131.24 325.984C1131.27 326.097 1131.29 326.21 1131.32 326.333C1131.45 326.864 1131.54 327.404 1131.6 327.949C1131.63 328.239 1131.64 328.528 1131.65 328.825C1131.65 329.116 1131.64 329.414 1131.61 329.706C1131.58 329.996 1131.54 330.284 1131.48 330.569C1131.42 330.848 1131.34 331.123 1131.24 331.391C1131.04 331.922 1130.76 332.414 1130.4 332.848C1130.22 333.067 1130.01 333.262 1129.8 333.464C1129.59 333.664 1129.37 333.863 1129.15 334.056C1128.69 334.452 1128.22 334.823 1127.72 335.168C1127.22 335.519 1126.7 335.844 1126.16 336.143C1125.89 336.291 1125.61 336.432 1125.34 336.567C1125.06 336.699 1124.78 336.825 1124.5 336.944C1123.94 337.178 1123.37 337.382 1122.81 337.551C1122.27 337.715 1121.72 337.852 1121.16 337.961C1120.1 338.173 1119.12 338.26 1118.4 338.279L1118.14 338.283L1117.9 338.283L1117.53 338.273L1117.29 338.259L1117.2 338.251L1117.19 338.166L1117.18 337.924L1117.17 337.547L1117.17 337.314L1117.17 337.055C1117.19 336.329 1117.28 335.354 1117.49 334.29C1117.6 333.734 1117.74 333.184 1117.9 332.641C1118.07 332.08 1118.27 331.513 1118.51 330.95C1118.63 330.668 1118.75 330.389 1118.88 330.113C1119.02 329.838 1119.16 329.563 1119.31 329.293C1119.61 328.755 1119.93 328.23 1120.28 327.73C1120.63 327.236 1121 326.76 1121.39 326.305C1121.59 326.079 1121.79 325.864 1121.99 325.653C1122.19 325.445 1122.38 325.235 1122.6 325.055C1123.04 324.692 1123.53 324.413 1124.06 324.214C1124.33 324.114 1124.6 324.033 1124.88 323.972C1125.17 323.91 1125.46 323.866 1125.75 323.84C1126.04 323.812 1126.34 323.805 1126.63 323.806C1126.92 323.812 1127.21 323.825 1127.5 323.856C1128.05 323.91 1128.59 324.001 1129.12 324.131C1129.24 324.161 1129.35 324.186 1129.47 324.216L1129.79 324.306C1129.89 324.332 1129.99 324.365 1130.08 324.393C1130.17 324.422 1130.25 324.444 1130.32 324.472L1130.53 324.542C1130.58 324.561 1130.64 324.584 1130.68 324.599C1130.76 324.63 1130.8 324.647 1130.8 324.647Z" fill="#BD6E28"/>
<path d="M1121.55 315.397L1116.31 320.637C1115.95 321 1116.21 321.619 1116.72 321.619H1121.12C1121.28 321.619 1121.42 321.679 1121.53 321.787L1124.39 324.647L1129.04 315.229H1121.96C1121.89 315.229 1121.81 315.244 1121.74 315.272C1121.67 315.301 1121.61 315.344 1121.55 315.397ZM1131.62 330.634L1134.48 333.493C1134.59 333.601 1134.65 333.747 1134.65 333.9V338.304C1134.65 338.816 1135.27 339.073 1135.63 338.711L1140.87 333.47C1140.98 333.363 1141.04 333.216 1141.04 333.064V325.989L1131.62 330.634Z" fill="#F6931D"/>
<path d="M1152.54 303.555L1152.55 303.601C1152.55 303.631 1152.56 303.677 1152.56 303.735C1152.57 303.85 1152.59 304.029 1152.6 304.243C1152.64 304.685 1152.66 305.307 1152.64 306.055C1152.63 306.804 1152.57 307.679 1152.46 308.628C1152.43 308.869 1152.4 309.107 1152.36 309.354C1152.33 309.604 1152.28 309.848 1152.24 310.104C1152.15 310.613 1152.04 311.131 1151.92 311.66C1151.66 312.757 1151.32 313.836 1150.92 314.89C1150.51 315.975 1150.01 317.059 1149.42 318.113C1148.84 319.165 1148.18 320.192 1147.43 321.167C1146.69 322.144 1145.87 323.071 1144.99 323.938C1144.12 324.805 1143.18 325.614 1142.19 326.347C1141.95 326.531 1141.7 326.711 1141.45 326.883C1141.2 327.059 1140.94 327.226 1140.69 327.392C1140.17 327.722 1139.65 328.031 1139.12 328.32C1138.08 328.89 1137 329.388 1135.89 329.811C1134.84 330.212 1133.76 330.546 1132.67 330.812C1132.14 330.939 1131.62 331.051 1131.12 331.139L1130.74 331.207C1130.62 331.228 1130.49 331.246 1130.37 331.265L1130.01 331.32L1129.65 331.366C1128.7 331.485 1127.83 331.544 1127.09 331.564C1126.35 331.585 1125.73 331.567 1125.29 331.539C1125.08 331.531 1124.9 331.511 1124.79 331.503C1124.73 331.499 1124.69 331.492 1124.66 331.489L1124.61 331.484C1124.27 331.446 1124 331.172 1123.97 330.84L1123.96 330.794C1123.96 330.764 1123.95 330.718 1123.95 330.661C1123.94 330.547 1123.92 330.37 1123.91 330.158C1123.88 329.721 1123.87 329.102 1123.89 328.36C1123.91 327.617 1123.97 326.748 1124.09 325.803L1124.13 325.444L1124.19 325.082C1124.21 324.959 1124.22 324.834 1124.24 324.71L1124.31 324.335C1124.4 323.827 1124.51 323.311 1124.64 322.784C1124.9 321.689 1125.24 320.611 1125.64 319.558C1126.06 318.449 1126.56 317.371 1127.13 316.33C1127.42 315.801 1127.73 315.278 1128.06 314.765C1128.22 314.51 1128.39 314.254 1128.57 314.004C1128.74 313.75 1128.92 313.503 1129.1 313.257C1129.84 312.272 1130.65 311.335 1131.51 310.457C1132.38 309.578 1133.31 308.759 1134.28 308.017C1135.26 307.275 1136.29 306.61 1137.34 306.026C1138.39 305.443 1139.48 304.945 1140.56 304.531C1141.62 304.129 1142.69 303.795 1143.79 303.533C1144.32 303.407 1144.84 303.298 1145.35 303.211C1145.6 303.168 1145.85 303.121 1146.1 303.089C1146.34 303.053 1146.58 303.017 1146.82 302.991C1147.77 302.877 1148.65 302.824 1149.4 302.809C1150.14 302.794 1150.77 302.816 1151.21 302.848C1151.42 302.859 1151.6 302.88 1151.72 302.89C1151.77 302.894 1151.82 302.901 1151.85 302.904L1151.9 302.91C1152.24 302.952 1152.5 303.225 1152.54 303.555Z" fill="#FFCC19"/>
<path d="M1133.57 321.883L1133.61 321.997C1133.63 322.067 1133.67 322.169 1133.69 322.283C1133.74 322.518 1133.76 322.805 1133.66 323.054C1133.62 323.179 1133.53 323.283 1133.45 323.409L1133.18 323.811L1132.54 324.773C1132.29 325.15 1132.03 325.525 1131.77 325.899C1131.49 326.315 1131.19 326.729 1130.9 327.14L1130.43 327.788L1129.94 328.444C1129.61 328.883 1129.27 329.327 1128.92 329.765C1128.58 330.201 1128.24 330.634 1127.88 331.063C1127.54 331.489 1127.2 331.908 1126.87 332.309L1126.38 332.901C1126.22 333.092 1126.07 333.29 1125.9 333.456C1125.73 333.622 1125.53 333.753 1125.31 333.844C1125.08 333.937 1124.84 333.998 1124.6 334.055C1124.15 334.161 1123.7 334.245 1123.25 334.307C1123.04 334.336 1122.84 334.358 1122.65 334.375C1122.46 334.393 1122.28 334.4 1122.12 334.412C1121.96 334.422 1121.8 334.421 1121.68 334.426C1121.55 334.428 1121.43 334.424 1121.34 334.424C1121.24 334.422 1121.17 334.417 1121.12 334.415L1121.04 334.41L1121.04 334.333C1121.03 334.284 1121.03 334.209 1121.03 334.115C1121.03 334.023 1121.02 333.906 1121.03 333.775C1121.03 333.647 1121.03 333.493 1121.04 333.332C1121.05 333.172 1121.06 332.99 1121.08 332.801C1121.09 332.612 1121.12 332.411 1121.14 332.201C1121.21 331.747 1121.29 331.296 1121.4 330.85C1121.45 330.614 1121.51 330.369 1121.61 330.145C1121.7 329.92 1121.83 329.724 1122 329.554C1122.16 329.382 1122.36 329.235 1122.55 329.073L1123.14 328.584C1123.54 328.251 1123.96 327.912 1124.39 327.566C1124.81 327.22 1125.25 326.872 1125.69 326.528C1126.12 326.183 1126.57 325.844 1127.01 325.512L1127.66 325.023L1128.31 324.553C1128.72 324.258 1129.14 323.966 1129.55 323.677C1129.95 323.402 1130.33 323.144 1130.68 322.908L1131.64 322.267L1132.04 322C1132.17 321.92 1132.27 321.835 1132.4 321.788C1132.65 321.695 1132.93 321.712 1133.17 321.764C1133.28 321.786 1133.38 321.817 1133.45 321.841L1133.57 321.883Z" fill="#F6931D"/>
<path d="M1136.27 314C1136.27 316.67 1138.44 318.835 1141.11 318.835C1143.79 318.835 1145.96 316.67 1145.96 314C1145.96 311.33 1143.79 309.165 1141.11 309.165C1138.44 309.165 1136.27 311.33 1136.27 314Z" fill="#333333"/>
</g>
</g>
<defs>
<clipPath id="clip0_43_500">
<rect width="1280" height="566" fill="white" transform="translate(0 0.262695)"/>
</clipPath>
<clipPath id="clip1_43_500">
<rect width="35.332" height="35.332" fill="white" transform="matrix(-1 0 0 1 1004.3 87.447)"/>
</clipPath>
<clipPath id="clip2_43_500">
<rect width="24" height="24" fill="white" transform="translate(655 238.263)"/>
</clipPath>
<clipPath id="clip3_43_500">
<rect width="24" height="24" fill="white" transform="translate(1179 62.2627)"/>
</clipPath>
<clipPath id="clip4_43_500">
<rect width="37" height="37" fill="white" transform="translate(1116 302.263)"/>
</clipPath>
</defs>
</svg>
